<?xml version="1.0" encoding="UTF-8" standalone="no"?>
<svg
   xmlns:osb="http://www.openswatchbook.org/uri/2009/osb"
   xmlns:dc="http://purl.org/dc/elements/1.1/"
   xmlns:cc="http://creativecommons.org/ns#"
   xmlns:rdf="http://www.w3.org/1999/02/22-rdf-syntax-ns#"
   xmlns:svg="http://www.w3.org/2000/svg"
   xmlns="http://www.w3.org/2000/svg"
   xmlns:sodipodi="http://sodipodi.sourceforge.net/DTD/sodipodi-0.dtd"
   xmlns:inkscape="http://www.inkscape.org/namespaces/inkscape"
   sodipodi:docname="desert.svg"
   inkscape:version="1.0 (4035a4fb49, 2020-05-01)"
   id="svg8"
   version="1.1"
   viewBox="0 0 60.472444 60.472438"
   height="16mm"
   width="16mm"
   inkscape:export-filename="/home/bert/dev/notpokemongo/assets/structures/desert.png"
   inkscape:export-xdpi="203.2"
   inkscape:export-ydpi="203.2">
  <defs
     id="defs2">
    <inkscape:path-effect
       only_selected="false"
       apply_with_weight="true"
       apply_no_weight="true"
       helper_size="0"
       steps="2"
       weight="33.333333"
       lpeversion="1"
       is_visible="true"
       id="path-effect911"
       effect="bspline" />
    <inkscape:path-effect
       only_selected="false"
       apply_with_weight="true"
       apply_no_weight="true"
       helper_size="0"
       steps="2"
       weight="33.333333"
       lpeversion="1"
       is_visible="true"
       id="path-effect907"
       effect="bspline" />
    <inkscape:path-effect
       effect="bspline"
       id="path-effect888"
       is_visible="true"
       lpeversion="1"
       weight="33.333333"
       steps="2"
       helper_size="0"
       apply_no_weight="true"
       apply_with_weight="true"
       only_selected="false" />
    <inkscape:path-effect
       effect="bspline"
       id="path-effect932"
       is_visible="true"
       lpeversion="1"
       weight="33.333333"
       steps="2"
       helper_size="0"
       apply_no_weight="true"
       apply_with_weight="true"
       only_selected="false" />
    <inkscape:path-effect
       effect="bspline"
       id="path-effect928"
       is_visible="true"
       lpeversion="1"
       weight="33.333333"
       steps="2"
       helper_size="0"
       apply_no_weight="true"
       apply_with_weight="true"
       only_selected="false" />
    <inkscape:path-effect
       effect="bspline"
       id="path-effect924"
       is_visible="true"
       lpeversion="1"
       weight="33.333333"
       steps="2"
       helper_size="0"
       apply_no_weight="true"
       apply_with_weight="true"
       only_selected="false" />
    <inkscape:path-effect
       only_selected="false"
       apply_with_weight="true"
       apply_no_weight="true"
       helper_size="0"
       steps="2"
       weight="33.333333"
       lpeversion="1"
       is_visible="true"
       id="path-effect905"
       effect="bspline" />
    <inkscape:path-effect
       effect="bspline"
       id="path-effect886"
       is_visible="true"
       lpeversion="1"
       weight="33.333333"
       steps="2"
       helper_size="0"
       apply_no_weight="true"
       apply_with_weight="true"
       only_selected="false" />
    <inkscape:path-effect
       only_selected="false"
       apply_with_weight="true"
       apply_no_weight="true"
       helper_size="0"
       steps="2"
       weight="33.333333"
       lpeversion="1"
       is_visible="true"
       id="path-effect867"
       effect="bspline" />
    <inkscape:path-effect
       effect="bspline"
       id="path-effect848"
       is_visible="true"
       lpeversion="1"
       weight="33.333333"
       steps="2"
       helper_size="0"
       apply_no_weight="true"
       apply_with_weight="true"
       only_selected="false" />
    <inkscape:path-effect
       only_selected="false"
       apply_with_weight="true"
       apply_no_weight="true"
       helper_size="0"
       steps="2"
       weight="33.333333"
       lpeversion="1"
       is_visible="true"
       id="path-effect847"
       effect="bspline" />
    <inkscape:path-effect
       only_selected="false"
       apply_with_weight="true"
       apply_no_weight="true"
       helper_size="0"
       steps="2"
       weight="33.333333"
       lpeversion="1"
       is_visible="true"
       id="path-effect878"
       effect="bspline" />
    <inkscape:path-effect
       only_selected="false"
       apply_with_weight="true"
       apply_no_weight="true"
       helper_size="0"
       steps="2"
       weight="33.333333"
       lpeversion="1"
       is_visible="true"
       id="path-effect868"
       effect="bspline" />
    <inkscape:path-effect
       effect="bspline"
       id="path-effect849"
       is_visible="true"
       lpeversion="1"
       weight="33.333333"
       steps="2"
       helper_size="0"
       apply_no_weight="true"
       apply_with_weight="true"
       only_selected="false" />
    <inkscape:path-effect
       effect="bspline"
       id="path-effect966"
       is_visible="true"
       lpeversion="1"
       weight="33.333333"
       steps="2"
       helper_size="0"
       apply_no_weight="true"
       apply_with_weight="true"
       only_selected="false" />
    <inkscape:path-effect
       only_selected="false"
       apply_with_weight="true"
       apply_no_weight="true"
       helper_size="0"
       steps="2"
       weight="33.333333"
       lpeversion="1"
       is_visible="true"
       id="path-effect947"
       effect="bspline" />
    <inkscape:path-effect
       effect="bspline"
       id="path-effect892"
       is_visible="true"
       lpeversion="1"
       weight="33.333333"
       steps="2"
       helper_size="0"
       apply_no_weight="true"
       apply_with_weight="true"
       only_selected="false" />
    <inkscape:path-effect
       effect="bspline"
       id="path-effect881"
       is_visible="true"
       lpeversion="1"
       weight="33.333333"
       steps="2"
       helper_size="0"
       apply_no_weight="true"
       apply_with_weight="true"
       only_selected="false" />
    <inkscape:path-effect
       effect="bspline"
       id="path-effect877"
       is_visible="true"
       lpeversion="1"
       weight="33.333333"
       steps="2"
       helper_size="0"
       apply_no_weight="true"
       apply_with_weight="true"
       only_selected="false" />
    <linearGradient
       osb:paint="solid"
       id="linearGradient1428">
      <stop
         id="stop1426"
         offset="0"
         style="stop-color:#e0e0e0;stop-opacity:1;" />
    </linearGradient>
  </defs>
  <sodipodi:namedview
     inkscape:window-maximized="1"
     inkscape:window-y="34"
     inkscape:window-x="53"
     inkscape:window-height="1018"
     inkscape:window-width="1867"
     units="mm"
     showgrid="false"
     inkscape:document-rotation="0"
     inkscape:current-layer="layer1"
     inkscape:document-units="px"
     inkscape:cy="26.077891"
     inkscape:cx="22.902391"
     inkscape:zoom="8.8719805"
     inkscape:pageshadow="2"
     inkscape:pageopacity="0.0"
     borderopacity="1.0"
     bordercolor="#666666"
     pagecolor="#ffffff"
     id="base"
     width="64px"
     scale-x="1" />
  <metadata
     id="metadata5">
    <rdf:RDF>
      <cc:Work
         rdf:about="">
        <dc:format>image/svg+xml</dc:format>
        <dc:type
           rdf:resource="http://purl.org/dc/dcmitype/StillImage" />
        <dc:title></dc:title>
      </cc:Work>
    </rdf:RDF>
  </metadata>
  <g
     id="layer1"
     inkscape:groupmode="layer"
     inkscape:label="Layer 1">
    <path
       style="fill:#dbe3db;stroke:none;stroke-width:1.14995px;stroke-linecap:butt;stroke-linejoin:miter;stroke-opacity:1"
       d="M 14.621504,40.495353 C 6.485787,39.658099 4.9560715,39.209466 6.0056711,34.769186 7.0552706,30.328907 10.685652,21.897223 12.746527,17.887309 c 2.060875,-4.009914 2.550687,-3.598445 3.202699,-2.714777 0.652013,0.883669 1.466622,2.239178 2.219423,2.666402 0.752801,0.427224 1.444303,-0.07232 3.045857,-2.472173 1.601555,-2.399854 4.113485,-6.7003294 5.819332,-8.8955449 1.705847,-2.1952155 2.604275,-2.284664 4.148243,-0.2519592 1.543968,2.0327047 3.733723,6.1859321 5.073854,8.3074471 1.34013,2.121515 1.829944,2.212341 3.304135,1.389147 1.474192,-0.823194 3.933734,-2.559899 6.004929,-3.001884 2.071196,-0.441984 3.752802,0.409853 5.187907,1.915052 1.435105,1.505199 2.624276,3.663006 3.32068,7.3291 0.696405,3.666095 0.900713,8.840428 0.512904,12.696216 -0.387809,3.855787 -1.367436,6.393413 -9.22758,7.048919 -7.860144,0.655506 -22.601688,-0.570648 -30.737406,-1.407901 z"
       id="path930"
       inkscape:path-effect="#path-effect932"
       inkscape:original-d="M 8.014106,40.106322 C 6.485581,39.658801 4.9558656,39.210168 3.4249608,38.760424 7.0566785,30.329513 10.687061,21.897829 14.316325,13.464863 c 0.491023,0.412597 0.980834,0.824066 1.469466,1.234433 0.815831,1.356675 1.630441,2.712183 2.443877,4.066609 0.692718,-0.498451 1.384219,-0.997996 2.074543,-1.49866 2.513221,-4.299537 5.025151,-8.6000125 7.535942,-12.9016859 0.899653,-0.088342 1.798081,-0.1777893 2.695337,-0.268351 2.191032,4.1545043 4.380786,8.3077319 6.569395,12.4599309 0.491021,0.09194 0.980834,0.182767 1.469466,0.272484 2.46083,-1.735664 4.920371,-3.47237 7.378774,-5.21022 1.682864,0.852986 3.36447,1.704823 5.044921,2.555566 1.190408,2.159005 2.379578,4.316812 3.567583,6.47355 0.205506,5.17565 0.409814,10.349983 0.612937,15.523308 -0.978477,2.538839 -1.958104,5.076464 -2.938939,7.61303 C 37.498682,42.559766 22.757138,41.333612 8.014106,40.106322 Z" />
    <path
       sodipodi:nodetypes="ccccccccccc"
       inkscape:original-d="m 20.219649,39.283258 c -0.0012,-0.33279 -0.0033,-0.66635 -0.0063,-1.00068 0.896694,-3.657284 1.792213,-7.31485 2.686864,-10.973956 4.01159,-0.08078 8.02187,-0.162552 12.031373,-0.245329 4.813763,-0.787091 9.626375,-1.575157 14.438125,-2.364245 2.440767,2.511099 4.880475,5.02133 7.31927,7.53084 0.154673,6.157865 0.308344,12.314648 0.461031,18.471091 -1.994277,-1.17796 -3.989267,-2.356751 -5.985429,-3.536644 C 41.053671,45.299511 30.942226,43.433995 20.829618,41.56767 20.627262,40.806953 20.423954,40.045499 20.219679,39.283258 Z"
       inkscape:path-effect="#path-effect907"
       id="path926-6"
       d="m 20.218601,39.116866 c -0.001,-0.166392 -0.0031,-0.499952 0.44356,-2.495906 0.446708,-1.995953 1.342227,-5.65352 3.795924,-7.523828 2.453697,-1.870309 6.463977,-1.952082 10.875528,-2.387072 4.41155,-0.434991 9.224162,-1.223057 12.850459,-0.361431 3.626296,0.861625 6.066004,3.371856 7.362306,7.705502 1.296301,4.333646 1.449972,10.490429 0.529754,12.979507 -0.920218,2.489077 -2.915208,1.310286 -8.968781,-0.212207 -6.053574,-1.522494 -16.165019,-3.388011 -21.322907,-4.70115 -5.157887,-1.31314 -5.361196,-2.074594 -5.46298,-2.455808 -0.101785,-0.381215 -0.101815,-0.381215 -0.102863,-0.547607 z"
       style="fill:#ffeeaa;stroke:none;stroke-width:0.860483px;stroke-linecap:butt;stroke-linejoin:miter;stroke-opacity:1" />
    <path
       sodipodi:nodetypes="cccccccccccc"
       style="fill:#ffe680;fill-opacity:1;stroke:none;stroke-width:0.814303px;stroke-linecap:butt;stroke-linejoin:miter;stroke-opacity:1"
       d="m 16.614903,43.507408 c -8.52099,0.246037 -11.1078275,2.13773 -12.1951885,1.313348 -1.087361,-0.824382 -0.6746969,-4.365557 0.4855494,-7.952668 1.1602464,-3.587111 3.0679178,-7.219424 6.0433181,-7.732679 2.9754,-0.513256 7.01711,2.091983 12.204977,2.057393 5.187866,-0.03459 11.52162,-2.708047 16.003404,-2.428823 4.481784,0.279224 7.111071,3.509971 8.839489,6.206938 1.728418,2.696967 2.555621,4.858317 3.383335,7.021001 0,0 1.793376,0.535788 1.793376,0.535788 0,0 1.694336,2.751366 1.694336,2.751366 0,0 -0.824173,0.780681 -0.824173,0.780681 C 39.589017,44.660505 25.135893,43.261371 16.614903,43.507408 Z"
       id="path845-7-3"
       inkscape:path-effect="#path-effect888"
       inkscape:original-d="M 10.6804,41.862008 C 8.0945815,43.754359 5.5077438,45.646052 2.9197297,47.537203 3.3334815,43.996505 3.7461455,40.45533 4.1577466,36.913466 6.0666045,33.281552 7.9742762,29.649239 9.8809913,26.016088 c 4.0430237,2.606014 8.0847337,5.211253 12.1256147,7.816031 6.335203,-2.672998 12.668956,-5.346455 19.002017,-8.02069 2.630465,3.231496 5.259752,6.462243 7.888022,9.692436 0.828712,2.163833 2.483142,6.488053 2.483142,6.488053 l 1.793376,0.535788 1.694336,2.751366 -0.824173,0.780681 c 0,0 -28.907552,-2.797157 -43.362926,-4.197745 z" />
    <path
       style="fill:#ffdd55;stroke:none;stroke-width:0.804511px;stroke-linecap:butt;stroke-linejoin:miter;stroke-opacity:1"
       d="m 21.002815,45.740507 c -10e-4,-0.145449 -0.0031,-0.437026 0.390735,-2.08003 0.393881,-1.643005 1.183822,-4.637031 3.287252,-6.723796 2.10343,-2.086765 5.519444,-3.265547 9.984082,-3.747348 4.464639,-0.481802 9.977279,-0.266873 13.953495,0.938151 3.976217,1.205024 6.415926,3.399309 8.115168,6.625274 1.699242,3.225966 2.658587,7.483243 1.738209,9.65864 -0.920377,2.175397 -3.721115,2.269531 -10.177452,1.501307 -6.456337,-0.768224 -16.567782,-2.398941 -21.725651,-3.54678 -5.157868,-1.147839 -5.361177,-1.813454 -5.462968,-2.146711 -0.101792,-0.333258 -0.101822,-0.333258 -0.10287,-0.478707 z"
       id="path926"
       inkscape:path-effect="#path-effect928"
       inkscape:original-d="m 21.003863,45.885956 c -0.0012,-0.290904 -0.0033,-0.582481 -0.0063,-0.874731 0.790934,-2.993472 1.580873,-5.987498 2.369868,-8.982255 3.417111,-1.178156 6.833125,-2.356938 10.248245,-3.536416 5.513822,0.215611 11.026462,0.430541 16.538249,0.644802 2.440767,2.195045 4.880475,4.389331 7.31927,6.582987 0.960365,4.258207 1.91971,8.515484 2.878151,12.772345 -2.799943,0.09482 -5.600681,0.188945 -8.402549,0.282411 C 41.837885,51.144987 31.72644,49.51427 21.613832,47.882846 21.411476,47.217875 21.208168,46.55226 21.003893,45.885956 Z"
       sodipodi:nodetypes="cccccccccc" />
    <path
       inkscape:original-d="m 9.0149775,51.474738 c -2.5858192,1.892351 -5.1726569,3.784043 -7.760671,5.675194 0.4137519,-3.540698 0.8264158,-7.081872 1.238017,-10.623737 1.9088579,-3.631914 3.8165295,-7.264227 5.7232448,-10.897378 4.0430237,2.606015 8.0847347,5.211254 12.1256157,7.816031 6.335202,-2.672998 12.668955,-5.346454 19.002016,-8.02069 2.630465,3.231497 5.259753,6.462243 7.888023,9.692436 1.906498,1.005908 5.716166,3.015805 5.716166,3.015805 l 1.793376,0.535788 1.694336,2.751366 -0.824173,0.780682 c 0,0 -31.062895,-0.483045 -46.5959505,-0.725497 z"
       inkscape:path-effect="#path-effect905"
       id="path845-7"
       d="M 15.488266,52.541381 C 6.4284898,53.366175 3.8416525,55.257867 2.7542914,54.433485 1.6669303,53.609103 2.0795943,50.067929 3.2398407,46.480817 4.4000872,42.893706 6.3077586,39.261393 9.2831591,38.748138 12.25856,38.234882 16.30027,40.840122 21.488136,40.805532 c 5.187866,-0.03459 11.521619,-2.708047 16.003404,-2.428823 4.481784,0.279223 7.111072,3.50997 9.378638,5.62786 2.267565,2.11789 4.171822,3.122562 6.077211,4.12783 0,0 1.793376,0.535788 1.793376,0.535788 0,0 1.694336,2.751366 1.694336,2.751366 0,0 -0.824173,0.780682 -0.824173,0.780682 -15.531983,-0.241832 -31.062886,-0.483648 -40.122662,0.341146 z"
       style="fill:#ffcc00;fill-opacity:1;stroke:none;stroke-width:0.814303px;stroke-linecap:butt;stroke-linejoin:miter;stroke-opacity:1"
       sodipodi:nodetypes="cccccccccccc" />
    <path
       inkscape:original-d="m 53.720363,58.365204 c 1.838297,-0.147117 3.67177,-0.294772 5.510989,-0.443817 -0.154844,-1.46454 -0.310181,-2.9245 -0.466906,-4.38827 -1.01777,-3.919573 -2.036002,-7.837648 -3.056161,-11.759858 -5.625156,-1.382711 -11.249238,-2.765734 -16.872588,-4.149157 -3.462,1.740337 -6.921364,3.47797 -10.385318,5.216528 -4.395935,2.837662 -8.791445,5.673517 -13.186793,8.507735 -3.099749,0.679097 -6.1983023,1.357326 -9.2958482,2.034727 -1.3122266,0.03314 -2.6233296,0.06544 -3.933388,0.0969 0.2017309,0.873927 0.4045244,1.746978 0.6083934,2.619204 0.7912838,0.117534 1.5836067,0.234215 2.377018,0.35006 16.2329068,0.639426 32.4661158,1.278063 48.7006018,1.915953 z"
       inkscape:path-effect="#path-effect867"
       id="path845-3"
       d="m 54.639474,58.291185 c 0.919112,-0.07402 2.752585,-0.221674 3.594324,-1.027954 0.84174,-0.806281 0.686402,-2.266241 0.09924,-4.95786 -0.587161,-2.69162 -1.605393,-6.609695 -4.927585,-9.262531 -3.322191,-2.652836 -8.946273,-4.035861 -13.489292,-3.857682 -4.543019,0.178179 -8.002383,1.915812 -11.932399,4.203932 -3.930017,2.28812 -8.325527,5.123975 -12.07279,6.880884 -3.747263,1.756909 -6.8458161,2.435138 -9.050649,2.790292 -2.2048328,0.355154 -3.5159358,0.387453 -4.0694888,0.840413 -0.5535529,0.452961 -0.3507591,1.326012 0.1462886,1.820541 0.4970477,0.494529 1.2893702,0.611213 9.8024732,0.988938 8.513102,0.377726 24.746311,1.016364 32.863539,1.335707 8.117227,0.319344 8.117227,0.319339 9.036338,0.24532 z"
       style="fill:#d4aa00;stroke:none;stroke-width:0.949359px;stroke-linecap:butt;stroke-linejoin:miter;stroke-opacity:1"
       sodipodi:nodetypes="cccccccccccc" />
    <path
       sodipodi:nodetypes="sccccccccccccccccccccccccss"
       inkscape:original-d="m 37.224992,51.583255 c -0.161903,-0.025 -0.324806,-0.05101 -0.488709,-0.07801 -2.06394,0.02081 -4.128798,0.04062 -6.194697,0.05943 -0.144294,-0.318481 -0.289583,-0.637949 -0.435874,-0.958423 0.29379,-5.587469 0.586568,-11.175714 0.878352,-16.765071 -0.342424,-0.843522 -0.685835,-1.68801 -1.030252,-2.533515 -4.014407,-0.02748 -8.029654,-0.05596 -12.045981,-0.08544 -0.553761,-4.502713 -1.1085,-9.006246 -1.66425,-13.510869 1.280031,-1.75863 2.55901,-3.51819 3.837016,-5.278785 0.888178,1.714812 1.775303,3.42852 2.661481,5.141332 -0.221345,2.636115 -0.443676,5.271071 -0.66702,7.905185 2.807823,0.644917 5.614476,1.288796 8.420298,1.931713 0.130883,-4.705795 0.260762,-9.412403 0.389643,-14.120104 1.068694,-1.886176 2.136324,-3.7732389 3.203018,-5.661415 1.484763,1.9723812 2.968467,3.943684 4.451201,5.914025 -0.194927,5.533745 -0.390845,11.066268 -0.587767,16.597901 0.947614,-0.0411 1.89419,-0.0832 2.839785,-0.126308 2.094559,-0.114161 4.188035,-0.229318 6.280553,-0.345477 0.03182,-2.438461 0.06264,-4.877775 0.09246,-7.318236 1.068694,-1.068894 2.136324,-2.138724 3.203018,-3.209619 0.760494,1.171198 1.519942,2.341326 2.278436,3.510524 0.11107,3.436055 0.221136,6.870974 0.330204,10.304961 -0.98304,0.610246 -1.96704,1.219468 -2.95206,1.827701 -4.289587,0.180555 -8.580003,0.360103 -12.871504,0.538655 0.04283,0.739029 0.08465,1.477028 0.125482,2.214042 -0.01661,4.683028 -0.03422,9.364868 -0.05283,14.045802 z"
       inkscape:path-effect="#path-effect911"
       id="path909"
       d="m 37.144106,51.570344 c -0.08089,-0.01291 -0.24379,-0.03891 -1.357781,-0.04211 -1.113992,-0.0032 -3.17885,0.01662 -4.284167,-0.132609 -1.105318,-0.149228 -1.250607,-0.468697 -1.177156,-3.422798 0.07345,-2.954102 0.366228,-8.542347 0.341179,-11.758655 -0.02505,-3.216309 -0.368461,-4.060797 -2.547615,-4.49789 -2.179154,-0.437092 -6.194401,-0.465572 -8.47988,-2.731119 -2.28548,-2.265547 -2.840219,-6.76908 -2.478211,-9.90117 0.362007,-3.13209 1.640987,-4.89165 2.724453,-4.914033 1.083467,-0.02238 1.970591,1.691326 2.30266,3.865646 0.332069,2.174319 0.109738,4.809275 1.402599,6.44847 1.292862,1.639195 4.099515,2.283074 5.56727,0.251987 1.467756,-2.031087 1.597634,-6.737695 2.196342,-10.034955 0.598708,-3.29726 1.666338,-5.184323 2.942581,-5.1418256 1.276242,0.042497 2.759947,2.0137996 3.403412,5.7657656 0.643466,3.751965 0.447547,9.284488 0.823387,12.02925 0.375839,2.744762 1.322415,2.70266 2.842487,2.624024 1.520071,-0.07864 3.613547,-0.193794 4.675239,-1.470584 1.061692,-1.276791 1.092511,-3.716105 1.641774,-5.471275 0.549263,-1.755171 1.616893,-2.825001 2.530864,-2.77427 0.913971,0.05073 1.673419,1.220859 2.107841,3.523421 0.434422,2.302562 0.544488,5.737481 0.107623,7.758997 -0.436865,2.021516 -1.420865,2.630737 -4.057828,3.025197 -2.636963,0.394459 -6.927379,0.574007 -9.052163,1.033344 -2.124785,0.459337 -2.082959,1.197336 -2.070882,3.907329 0.01208,2.709992 -0.0055,7.391832 -0.01434,9.732301 -0.0088,2.340469 -0.0088,2.34047 -0.08969,2.327559 z"
       style="fill:#37c837;stroke:none;stroke-width:1px;stroke-linecap:butt;stroke-linejoin:miter;stroke-opacity:1" />
  </g>
</svg>
