<?xml version="1.0" encoding="UTF-8" standalone="no"?>
<svg
   xmlns:osb="http://www.openswatchbook.org/uri/2009/osb"
   xmlns:dc="http://purl.org/dc/elements/1.1/"
   xmlns:cc="http://creativecommons.org/ns#"
   xmlns:rdf="http://www.w3.org/1999/02/22-rdf-syntax-ns#"
   xmlns:svg="http://www.w3.org/2000/svg"
   xmlns="http://www.w3.org/2000/svg"
   xmlns:sodipodi="http://sodipodi.sourceforge.net/DTD/sodipodi-0.dtd"
   xmlns:inkscape="http://www.inkscape.org/namespaces/inkscape"
   inkscape:export-ydpi="203.2"
   inkscape:export-xdpi="203.2"
   inkscape:export-filename="/home/bert/dev/notpokemongo/assets/leather.png"
   width="16mm"
   height="16mm"
   viewBox="0 0 60.472444 60.472438"
   version="1.1"
   id="svg8"
   inkscape:version="1.0 (4035a4fb49, 2020-05-01)"
   sodipodi:docname="leather.svg">
  <defs
     id="defs2">
    <inkscape:path-effect
       only_selected="false"
       apply_with_weight="true"
       apply_no_weight="true"
       helper_size="0"
       steps="2"
       weight="33.333333"
       lpeversion="1"
       is_visible="true"
       id="path-effect915"
       effect="bspline" />
    <inkscape:path-effect
       effect="bspline"
       id="path-effect893"
       is_visible="true"
       lpeversion="1"
       weight="33.333333"
       steps="2"
       helper_size="0"
       apply_no_weight="true"
       apply_with_weight="true"
       only_selected="false" />
    <inkscape:path-effect
       only_selected="false"
       apply_with_weight="true"
       apply_no_weight="true"
       helper_size="0"
       steps="2"
       weight="33.333333"
       lpeversion="1"
       is_visible="true"
       id="path-effect874"
       effect="bspline" />
    <inkscape:path-effect
       only_selected="false"
       apply_with_weight="true"
       apply_no_weight="true"
       helper_size="0"
       steps="2"
       weight="33.333333"
       lpeversion="1"
       is_visible="true"
       id="path-effect870"
       effect="bspline" />
    <inkscape:path-effect
       only_selected="false"
       apply_with_weight="true"
       apply_no_weight="true"
       helper_size="0"
       steps="2"
       weight="33.333333"
       lpeversion="1"
       is_visible="true"
       id="path-effect1119"
       effect="bspline" />
    <inkscape:path-effect
       only_selected="false"
       apply_with_weight="true"
       apply_no_weight="true"
       helper_size="0"
       steps="2"
       weight="33.333333"
       lpeversion="1"
       is_visible="true"
       id="path-effect1115"
       effect="bspline" />
    <inkscape:path-effect
       only_selected="false"
       apply_with_weight="true"
       apply_no_weight="true"
       helper_size="0"
       steps="2"
       weight="33.333333"
       lpeversion="1"
       is_visible="true"
       id="path-effect990"
       effect="bspline" />
    <inkscape:path-effect
       only_selected="false"
       apply_with_weight="true"
       apply_no_weight="true"
       helper_size="0"
       steps="2"
       weight="33.333333"
       lpeversion="1"
       is_visible="true"
       id="path-effect966"
       effect="bspline" />
    <inkscape:path-effect
       effect="bspline"
       id="path-effect947"
       is_visible="true"
       lpeversion="1"
       weight="33.333333"
       steps="2"
       helper_size="0"
       apply_no_weight="true"
       apply_with_weight="true"
       only_selected="false" />
    <inkscape:path-effect
       only_selected="false"
       apply_with_weight="true"
       apply_no_weight="true"
       helper_size="0"
       steps="2"
       weight="33.333333"
       lpeversion="1"
       is_visible="true"
       id="path-effect892"
       effect="bspline" />
    <inkscape:path-effect
       only_selected="false"
       apply_with_weight="true"
       apply_no_weight="true"
       helper_size="0"
       steps="2"
       weight="33.333333"
       lpeversion="1"
       is_visible="true"
       id="path-effect881"
       effect="bspline" />
    <inkscape:path-effect
       only_selected="false"
       apply_with_weight="true"
       apply_no_weight="true"
       helper_size="0"
       steps="2"
       weight="33.333333"
       lpeversion="1"
       is_visible="true"
       id="path-effect877"
       effect="bspline" />
    <linearGradient
       id="linearGradient1428"
       osb:paint="solid">
      <stop
         style="stop-color:#e0e0e0;stop-opacity:1;"
         offset="0"
         id="stop1426" />
    </linearGradient>
  </defs>
  <sodipodi:namedview
     inkscape:object-paths="true"
     scale-x="1"
     width="64px"
     id="base"
     pagecolor="#ffffff"
     bordercolor="#666666"
     borderopacity="1.0"
     inkscape:pageopacity="0.0"
     inkscape:pageshadow="2"
     inkscape:zoom="8.8719805"
     inkscape:cx="23.332943"
     inkscape:cy="32.556933"
     inkscape:document-units="px"
     inkscape:current-layer="layer1"
     inkscape:document-rotation="0"
     showgrid="false"
     units="mm"
     inkscape:window-width="1867"
     inkscape:window-height="1018"
     inkscape:window-x="53"
     inkscape:window-y="34"
     inkscape:window-maximized="1"
     inkscape:snap-nodes="true" />
  <metadata
     id="metadata5">
    <rdf:RDF>
      <cc:Work
         rdf:about="">
        <dc:format>image/svg+xml</dc:format>
        <dc:type
           rdf:resource="http://purl.org/dc/dcmitype/StillImage" />
        <dc:title></dc:title>
      </cc:Work>
    </rdf:RDF>
  </metadata>
  <g
     inkscape:label="Layer 1"
     inkscape:groupmode="layer"
     id="layer1">
    <path
       sodipodi:nodetypes="ccccccccccccccccccccc"
       inkscape:original-d="m 12.357459,15.927039 c -0.05404,11.190265 -0.109073,22.379529 -0.165109,33.567793 -2.4756458,1.806476 -4.9521921,3.611879 -7.429788,5.416318 1.2448276,1.30991 2.4886054,2.618767 3.7314081,3.92665 2.9509609,-2.535086 5.9008029,-5.07107 8.8497039,-7.608106 2.928946,-0.172365 5.856716,-0.34572 8.783661,-0.520086 1.984519,2.273323 3.96792,4.545511 5.950439,6.816834 1.781986,-2.105387 3.562865,-4.211649 5.342851,-6.319037 3.422074,-0.410123 6.842944,-0.821221 10.263017,-1.233343 2.21347,2.767412 4.425852,5.533714 6.637278,8.299072 1.513403,-0.962417 3.025746,-1.925794 4.537119,-2.890192 C 55.741767,51.968647 52.624683,48.553557 49.506411,45.137262 49.082529,36.013058 48.657672,26.888401 48.23179,17.762198 51.84319,14.552225 55.453446,11.341381 59.062775,8.1294714 57.663645,6.7385966 56.263572,5.3467774 54.862471,3.9539304 50.341662,9.0233884 45.820124,14.091542 41.297316,19.158999 37.571243,11.829125 33.844393,4.49869 30.11632,-2.8331842 25.117791,3.3965817 20.118561,9.6249748 15.118033,15.85274 12.158067,11.684307 9.19722,7.5150393 6.2353135,3.3446885 5.078342,5.4174029 3.9204169,7.4890344 2.7614685,9.5597074 5.9611959,11.683194 9.1597952,13.805595 12.357459,15.927039 Z"
       inkscape:path-effect="#path-effect915"
       id="path913"
       d="m 10.731184,20.46133 c 1.571234,6.655969 1.516197,17.845233 0.250447,24.342041 -1.26575,6.496808 -3.7422963,8.302211 -4.3582818,9.859962 -0.6159855,1.557752 0.6277922,2.866609 2.7242272,2.25246 2.0964346,-0.614149 5.0462766,-3.150133 7.9856286,-4.504826 2.939352,-1.354694 5.867122,-1.528049 8.32285,-0.478011 2.455727,1.050038 4.439128,3.322226 6.320878,3.404707 1.88175,0.08248 3.66263,-2.02378 6.264132,-3.282632 2.601501,-1.258853 6.022371,-1.669951 8.839148,-0.491705 2.816777,1.178246 5.029159,3.944548 6.891264,4.845387 1.862104,0.90084 3.374447,-0.06254 2.572345,-2.25128 C 55.74172,51.96869 52.624635,48.553601 50.853106,42.283351 49.081577,36.013102 48.656721,26.888445 50.249486,20.719808 51.842252,14.55117 55.452508,11.340326 56.558078,9.0394596 57.663648,6.7385933 56.263575,5.3467743 53.302092,7.1846113 50.340608,9.0224484 45.819071,14.090602 41.694961,12.959963 37.570852,11.829324 33.844002,4.4988885 29.480349,3.9472952 25.116695,3.3957018 20.117465,9.624095 16.13767,10.654269 12.157875,11.684443 9.1970275,7.515176 7.1370908,6.4659575 5.0771542,5.416739 3.919229,7.4883704 4.94029,9.5856653 5.9613511,11.68296 9.1599502,13.805361 10.731184,20.46133 Z"
       style="fill:#d38d5f;stroke:#d39e79;stroke-width:1px;stroke-linecap:butt;stroke-linejoin:miter;stroke-opacity:1;fill-opacity:1" />
    <path
       d="m 29.946979,11.306663 c -0.223276,-0.01621 -0.446348,-0.06174 -0.669827,-0.04863 -0.688081,0.04036 -1.293117,0.485078 -1.782094,0.925755 -0.459766,0.414353 -1.257053,1.28951 -1.645859,1.705047 -1.975598,2.107543 -3.857028,4.309615 -5.459398,6.71796 -0.313561,0.471279 -0.60434,0.957325 -0.906511,1.435987 -1.10301,1.830051 -1.997,3.779212 -2.60003,5.829244 -0.02031,0.08531 -0.04061,0.17063 -0.06092,0.255944 -0.01805,0.01418 1.987474,2.566735 2.005523,2.552553 v 0 c 0.02636,-0.09011 0.05272,-0.18021 0.07908,-0.270315 0.07468,-0.361702 0.134271,-0.674362 0.236468,-1.0373 0.442806,-1.572563 1.124483,-3.065101 1.914694,-4.491531 0.276055,-0.464638 0.539608,-0.936935 0.828164,-1.393915 1.50294,-2.380169 3.300255,-4.553574 5.220789,-6.606061 0.629843,-0.68639 1.279288,-1.362401 1.882909,-2.07274 0.05806,-0.06833 0.110066,-0.141584 0.165901,-0.211744 0.02502,-0.03143 0.100099,-0.06041 0.07664,-0.09302 -0.04287,-0.05959 -0.13582,-0.05575 -0.203731,-0.08363 0.02202,0.0065 0.940225,-3.107113 0.918208,-3.113606 z"
       id="path929"
       style="fill:#d39e79;fill-opacity:1;stroke:#d39e79;stroke-width:0;stroke-linejoin:bevel;stroke-opacity:1;paint-order:stroke markers fill" />
    <path
       d="m 37.176718,16.590802 c -0.932557,0.918776 -1.700546,1.986882 -2.515698,3.006575 -0.338201,0.423064 -0.682504,0.841214 -1.023756,1.261821 -2.06938,2.484428 -4.46909,4.659874 -6.752584,6.939744 -2.00274,1.999563 -1.795282,1.820717 -3.679274,3.89056 -2.063244,2.371561 -3.937874,4.902695 -5.638801,7.54489 -0.221762,0.354932 -0.151995,0.205854 -0.246285,0.427984 -0.02039,0.01054 1.470009,2.894348 1.4904,2.883809 v 0 c 0.213419,-0.24478 0.09887,-0.09481 0.3198,-0.46718 1.570608,-2.614564 3.410714,-5.062819 5.357017,-7.407257 1.749299,-1.968053 1.688784,-1.955331 3.573168,-3.847146 2.319829,-2.328977 4.784344,-4.521088 6.93286,-7.016151 0.353793,-0.426471 0.713244,-0.848312 1.061379,-1.279415 0.781422,-0.967652 1.500881,-1.9856 2.321177,-2.921765 0.02133,-0.0085 -1.178074,-3.02495 -1.199403,-3.016469 z"
       id="path935"
       style="fill:#d39e79;fill-opacity:1;stroke:#d39e79;stroke-width:0;stroke-linejoin:bevel;stroke-opacity:1;paint-order:stroke markers fill" />
    <path
       d="m 42.609977,28.535499 c 0.0064,0.0421 0.02225,0.08382 0.01915,0.126288 -0.04108,0.563622 -0.657998,0.986575 -1.050037,1.283763 -1.218692,0.80561 -2.392218,1.672869 -3.43482,2.700649 -0.834303,0.822441 -1.204423,1.290089 -1.97584,2.185315 -1.251142,1.509672 -2.435019,3.083399 -3.383877,4.803701 -0.528064,0.957392 -0.607971,1.205584 -1.028361,2.182717 -0.297618,0.8383 -0.353696,0.935561 -0.568456,1.753763 -0.05628,0.21442 -0.120251,0.428286 -0.14948,0.648035 -0.114757,0.862789 -0.222712,1.727524 -0.281986,2.59589 -0.0084,0.123773 0.05332,0.242325 0.07998,0.363487 0.01448,0.01781 2.5328,-2.030542 2.518316,-2.048349 v 0 c 0.178642,-0.715843 0.148093,-0.624702 -0.178933,1.53218 -0.02838,0.187178 0.02415,-0.378276 0.05143,-0.565617 0.09784,-0.671832 0.189017,-0.926014 0.370432,-1.605955 0.335103,-0.950434 0.363583,-1.113926 0.82173,-2.051603 0.82058,-1.679458 1.912766,-3.19979 3.084779,-4.649552 0.840628,-1.02274 1.671514,-2.052544 2.642446,-2.957663 0.585204,-0.545538 0.958036,-0.819896 1.602653,-1.27369 0.240613,-0.169385 0.48741,-0.32981 0.731115,-0.494716 0.36353,-0.238816 0.773922,-0.49377 1.11559,-0.769242 0.422996,-0.341042 0.760427,-0.769024 1.046355,-1.228028 0.0179,-0.01437 -2.014293,-2.545742 -2.032192,-2.531373 z"
       id="path939"
       style="fill:#d39e79;fill-opacity:1;stroke:#d39e79;stroke-width:0;stroke-linejoin:bevel;stroke-opacity:1;paint-order:stroke markers fill" />
  </g>
</svg>
