<?xml version="1.0" encoding="UTF-8" standalone="no"?>
<svg
   xmlns:osb="http://www.openswatchbook.org/uri/2009/osb"
   xmlns:dc="http://purl.org/dc/elements/1.1/"
   xmlns:cc="http://creativecommons.org/ns#"
   xmlns:rdf="http://www.w3.org/1999/02/22-rdf-syntax-ns#"
   xmlns:svg="http://www.w3.org/2000/svg"
   xmlns="http://www.w3.org/2000/svg"
   xmlns:sodipodi="http://sodipodi.sourceforge.net/DTD/sodipodi-0.dtd"
   xmlns:inkscape="http://www.inkscape.org/namespaces/inkscape"
   inkscape:export-ydpi="203.2"
   inkscape:export-xdpi="203.2"
   inkscape:export-filename="/home/bert/dev/notpokemongo/assets/river.png"
   width="16mm"
   height="16mm"
   viewBox="0 0 60.472444 60.472438"
   version="1.1"
   id="svg8"
   inkscape:version="1.0 (4035a4fb49, 2020-05-01)"
   sodipodi:docname="River.svg">
  <defs
     id="defs2">
    <inkscape:path-effect
       only_selected="false"
       apply_with_weight="true"
       apply_no_weight="true"
       helper_size="0"
       steps="2"
       weight="33.333333"
       lpeversion="1"
       is_visible="true"
       id="path-effect990"
       effect="bspline" />
    <inkscape:path-effect
       only_selected="false"
       apply_with_weight="true"
       apply_no_weight="true"
       helper_size="0"
       steps="2"
       weight="33.333333"
       lpeversion="1"
       is_visible="true"
       id="path-effect966"
       effect="bspline" />
    <inkscape:path-effect
       effect="bspline"
       id="path-effect947"
       is_visible="true"
       lpeversion="1"
       weight="33.333333"
       steps="2"
       helper_size="0"
       apply_no_weight="true"
       apply_with_weight="true"
       only_selected="false" />
    <inkscape:path-effect
       only_selected="false"
       apply_with_weight="true"
       apply_no_weight="true"
       helper_size="0"
       steps="2"
       weight="33.333333"
       lpeversion="1"
       is_visible="true"
       id="path-effect892"
       effect="bspline" />
    <inkscape:path-effect
       only_selected="false"
       apply_with_weight="true"
       apply_no_weight="true"
       helper_size="0"
       steps="2"
       weight="33.333333"
       lpeversion="1"
       is_visible="true"
       id="path-effect881"
       effect="bspline" />
    <inkscape:path-effect
       only_selected="false"
       apply_with_weight="true"
       apply_no_weight="true"
       helper_size="0"
       steps="2"
       weight="33.333333"
       lpeversion="1"
       is_visible="true"
       id="path-effect877"
       effect="bspline" />
    <linearGradient
       id="linearGradient1428"
       osb:paint="solid">
      <stop
         style="stop-color:#e0e0e0;stop-opacity:1;"
         offset="0"
         id="stop1426" />
    </linearGradient>
  </defs>
  <sodipodi:namedview
     scale-x="1"
     width="64px"
     id="base"
     pagecolor="#ffffff"
     bordercolor="#666666"
     borderopacity="1.0"
     inkscape:pageopacity="0.0"
     inkscape:pageshadow="2"
     inkscape:zoom="8.8719805"
     inkscape:cx="23.952873"
     inkscape:cy="12.036453"
     inkscape:document-units="px"
     inkscape:current-layer="layer1"
     inkscape:document-rotation="0"
     showgrid="false"
     units="mm"
     inkscape:window-width="1867"
     inkscape:window-height="1018"
     inkscape:window-x="53"
     inkscape:window-y="34"
     inkscape:window-maximized="1" />
  <metadata
     id="metadata5">
    <rdf:RDF>
      <cc:Work
         rdf:about="">
        <dc:format>image/svg+xml</dc:format>
        <dc:type
           rdf:resource="http://purl.org/dc/dcmitype/StillImage" />
        <dc:title></dc:title>
      </cc:Work>
    </rdf:RDF>
  </metadata>
  <g
     inkscape:label="Layer 1"
     inkscape:groupmode="layer"
     id="layer1">
    <path
       sodipodi:nodetypes="ccccccccccccc"
       inkscape:original-d="m 4.5933444,23.527575 c -0.012604,-0.386647 -0.026467,-0.774934 -0.04159,-1.164863 2.8169182,-4.920991 5.6329196,-9.843128 8.4481736,-14.7667042 0.977039,0.021331 1.952658,0.041654 2.927914,0.06099 1.162376,0.8000542 2.322569,1.5982944 3.483116,2.3964652 0.575422,0.04272 1.149404,0.0844 1.722515,0.125101 2.184743,-2.3313569 4.368055,-4.6632525 6.551923,-6.9978098 0.866418,0.1128567 1.730934,0.2245969 2.595192,0.335433 2.083801,2.9073921 4.164576,5.8109564 6.247002,8.7172198 0.644592,0.07016 1.287662,0.139255 1.929764,0.207357 1.144453,-1.595513 2.288156,-3.1923763 3.431178,-4.7906835 4.053688,5.0732205 8.104625,10.1432475 12.154926,15.2127305 0.417163,0.709113 0.833048,1.416558 1.247683,2.122375"
       inkscape:path-effect="#path-effect881"
       id="path879"
       d="m 4.5933444,23.527575 c -0.013803,-0.386604 -0.027667,-0.774891 1.3732387,-3.430711 1.4009052,-2.655821 4.2169069,-7.577957 6.1136559,-10.02923 1.896748,-2.4512735 2.872367,-2.4309509 3.941246,-2.0208724 1.068879,0.4100784 2.229072,1.2083184 3.097017,1.6284079 0.867945,0.4200895 1.441927,0.4617765 2.820305,-0.683576 1.378378,-1.1453521 3.561689,-3.4772478 5.087404,-4.5880434 1.525714,-1.1107956 2.39023,-0.9990554 3.86411,0.5105539 1.473881,1.5096093 3.554656,4.4131737 4.918306,5.900875 1.36365,1.487701 2.00672,1.5568 2.899383,0.79313 0.892663,-0.763671 2.036366,-2.3605335 4.635227,-0.622622 2.598861,1.737912 6.649798,6.807939 8.883481,9.697253 2.233683,2.889313 2.649569,3.596758 3.064423,4.302446"
       style="fill:#afe9af;stroke:none;stroke-width:1.43795px;stroke-linecap:butt;stroke-linejoin:miter;stroke-opacity:1" />
    <path
       sodipodi:nodetypes="cccccccccccccc"
       inkscape:original-d="m 2.6778752,31.100503 c 10e-4,0.001 0,0 0,0 0,0 0.00981,-5.254337 0.013209,-7.883005 1.6924448,-1.876193 3.3837878,-3.753273 5.0742325,-5.631466 5.9992763,2.548232 11.9971923,5.095312 17.9944693,7.641544 3.103628,-1.93725 6.20607,-3.875384 9.307697,-5.814635 6.463059,0.579938 12.924728,1.15884 19.385789,1.736778 0.743558,2.178739 1.486071,4.356345 2.227629,6.533083 -0.201535,5.251489 -0.404058,10.501666 -0.607593,15.751157 -4.170774,2.077667 -8.342296,4.15421 -12.51507,6.229878 C 37.161784,49.268574 30.764587,48.872326 24.366262,48.475071 18.280214,48.166492 12.193533,47.856932 6.1054862,47.546353 4.9022856,43.346961 3.6981573,39.146821 2.4929566,34.945428 2.5555974,33.664761 2.6172357,32.383145 2.6778752,31.100503 Z"
       inkscape:path-effect="#path-effect877"
       id="path875"
       d="m 2.6470326,31.741799 c 0.030843,-0.641296 0.030843,-0.641296 0.030843,-0.641296 0.0044,-2.627668 0.0088,-5.254339 0.8567045,-7.507241 0.8479001,-2.252902 2.5392431,-4.129982 6.3847316,-3.794734 3.8454887,0.335249 9.8434047,2.882328 14.3933887,3.186479 4.549984,0.30415 7.652425,-1.633984 12.435174,-2.313508 4.782749,-0.679524 11.244418,-0.100621 14.846392,1.27827 3.601974,1.37889 4.344487,3.556496 4.614275,7.270489 0.269788,3.713993 0.06727,8.96417 -2.11967,12.627169 -2.186934,3.662999 -6.358456,5.739542 -11.642743,6.579877 -5.284286,0.840335 -11.681483,0.444088 -17.923674,0.09117 C 18.280262,48.165545 12.193581,47.855985 8.5476038,45.601568 4.9016265,43.34715 3.6974983,39.14701 3.126025,36.40586 2.5545517,33.664711 2.61619,32.383095 2.6470326,31.741799 Z"
       style="fill:#5fd35f;stroke:none;stroke-width:1px;stroke-linecap:butt;stroke-linejoin:miter;stroke-opacity:1" />
    <path
       d="M 2.6470326,31.741799 A 26.618401,26.785923 0 0 0 29.26582,58.450742 26.618401,26.785923 0 0 0 55.882891,31.741799 Z"
       style="fill:#5fd35f;fill-opacity:1;stroke:none;stroke-width:0;stroke-linejoin:bevel;paint-order:stroke markers fill"
       id="path883" />
    <path
       sodipodi:nodetypes="cccccccccccccccc"
       inkscape:original-d="m 21.448578,22.573127 c -1.621795,4.457852 -3.24459,8.914703 -4.868386,13.370555 3.557992,2.120017 7.114841,4.238949 10.670761,6.356923 2.04802,-0.927165 4.094958,-1.855294 6.140936,-2.784441 1.869005,2.380079 3.736935,4.759063 5.603903,7.137094 -0.338355,3.492999 -0.677696,6.984859 -1.018043,10.475788 0.100627,-0.06029 0.200249,-0.121583 0.298874,-0.183875 1.984197,-1.033993 3.967315,-2.068943 5.949472,-3.104915 0.07105,-0.122462 0.141099,-0.245919 0.210149,-0.370378 0.100627,-2.81239 0.20025,-5.625667 0.298875,-8.44 -2.168999,-3.117984 -4.338911,-6.236842 -6.509866,-9.356763 -3.552876,0.2453 -7.10661,0.489591 -10.661416,0.732886 -2.922427,-1.299306 -5.845678,-2.599534 -8.770105,-3.90084 1.364643,-3.133744 2.72823,-6.268361 4.090846,-9.404042 -0.08773,-0.100573 -0.176456,-0.202142 -0.266184,-0.304714 -0.388946,-0.07343 -0.778877,-0.147852 -1.169816,-0.223278 z"
       inkscape:path-effect="#path-effect990"
       id="path988"
       d="m 20.832622,24.839156 c -1.007044,2.191384 -2.629839,6.648235 -1.66205,9.93624 0.96779,3.288005 4.524639,5.406937 7.326246,6.001887 2.801608,0.594951 4.848546,-0.333178 6.806245,0.392943 1.957698,0.726121 3.825628,3.105105 4.589458,6.040515 0.76383,2.93541 0.424489,6.42727 0.304811,8.142056 -0.119678,1.714785 -0.02006,1.653494 1.021405,1.10534 1.041459,-0.548155 3.024577,-1.583106 4.0509,-2.16206 1.026323,-0.578955 1.096372,-0.702413 1.181286,-2.170519 0.08491,-1.468107 0.184537,-4.281384 -0.850236,-7.247452 -1.034772,-2.966069 -3.204684,-6.084928 -6.066533,-7.522841 -2.86185,-1.437914 -6.415584,-1.193623 -9.654061,-1.721328 -3.238477,-0.527706 -6.161728,-1.827933 -6.942326,-4.045489 -0.780599,-2.217556 0.582989,-5.352173 1.220999,-6.970006 0.638011,-1.617834 0.549285,-1.719403 0.310058,-1.807824 -0.239227,-0.08842 -0.629158,-0.162846 -1.636202,2.028538 z"
       style="fill:#00ccff;stroke:none;stroke-width:1px;stroke-linecap:butt;stroke-linejoin:miter;stroke-opacity:1" />
    <path
       d="m 23.339221,35.651814 c 0.200765,0.261199 0.467541,0.470722 0.736653,0.657325 0.133082,0.09228 0.267629,0.182949 0.407696,0.264234 0.155968,0.09051 0.319628,0.167068 0.479442,0.250602 0.595098,0.291739 1.218236,0.525637 1.859202,0.694945 0.216467,0.05718 0.436345,0.100676 0.6554,0.146961 0.395425,0.08355 0.797391,0.155252 1.19487,0.228619 0.177587,0.03165 0.354996,0.06431 0.53276,0.09495 0.165313,0.02849 0.330435,0.05838 0.496454,0.08242 0.51807,0.07501 1.041038,0.112124 1.562935,0.147615 0.536771,0.0197 1.073394,0.04227 1.610375,0.05571 0.272285,0.0125 0.541981,0.0562 0.81491,0.05703 0.117903,3.57e-4 0.163538,-0.0051 0.274689,-0.01366 0.05798,0.01286 0.118248,-0.04097 0.174909,-0.02582 0.02875,0.0084 0.05763,0.0089 0.08621,-3.84e-4 0.01887,-0.01112 0.02366,-0.0031 -0.01274,-0.0074 -0.0095,-0.0011 -0.01861,-0.0046 -0.02792,-0.0069 0.0011,6.46e-4 0.09248,-0.160977 0.09134,-0.161623 v 0 c -0.02578,-0.01077 -0.05617,-0.02687 -0.08387,-0.01091 -0.0063,0.0053 0.01015,0.0097 -0.0024,0.0046 -0.06076,-0.04084 -0.113614,-0.09252 -0.187364,-0.112189 -0.118172,-0.0369 -0.139597,-0.04698 -0.270329,-0.07129 -0.268217,-0.04988 -0.542063,-0.05445 -0.811429,-0.09596 -0.527781,-0.07954 -1.060632,-0.113987 -1.587694,-0.198201 -0.31344,-0.04964 -0.367367,-0.05336 -0.683505,-0.123761 -0.612483,-0.136391 -1.211426,-0.328913 -1.817768,-0.489021 -0.600885,-0.168611 -1.201954,-0.339834 -1.806543,-0.494766 -0.583062,-0.149415 -0.705611,-0.160846 -1.277299,-0.31989 -0.186367,-0.05185 -0.370531,-0.111307 -0.555797,-0.16696 -0.580874,-0.210747 -1.162877,-0.424479 -1.757212,-0.594186 -0.0015,-6.78e-4 -0.09745,0.207166 -0.09598,0.207844 z"
       id="path1004"
       style="fill:#80e5ff;fill-opacity:1;stroke:none;stroke-width:0;stroke-linejoin:bevel;stroke-opacity:1;paint-order:stroke markers fill" />
    <path
       d="m 36.950365,41.855728 c 0.485096,0.293089 0.967872,0.590834 1.45127,0.887113 0.564196,0.319315 1.13132,0.64962 1.591051,1.113775 0.09525,0.09616 0.189102,0.1949 0.269074,0.304096 0.07368,0.100608 0.12651,0.214942 0.189764,0.322413 0.04062,0.114338 0.09002,0.225928 0.121852,0.343016 0.06759,0.248572 0.08494,0.478944 0.102653,0.734681 0.01682,0.242837 0.02574,0.472108 0.01327,0.715451 -0.0061,0.118527 -0.02137,0.236401 -0.03206,0.354601 -0.0027,-0.01589 -0.0043,-0.06337 -0.008,-0.04768 -0.0271,0.115185 -0.03776,0.233745 -0.06301,0.349348 -0.09862,0.451534 -0.256469,0.891424 -0.398322,1.330576 -0.09687,0.32432 -0.213191,0.644616 -0.270333,0.979366 -0.02226,0.130414 -0.02147,0.166207 -0.02889,0.289939 -0.0066,0.08867 -0.01323,0.177343 -0.01985,0.266015 0.0011,0.0016 0.225887,-0.147708 0.224831,-0.149298 v 0 c -6.85e-4,0.03926 -0.0014,0.07852 -0.0021,0.117781 0.122077,-0.353082 0.267205,-0.696872 0.429576,-1.033423 0.178005,-0.434574 0.338152,-0.872967 0.459014,-1.327356 0.0313,-0.117682 0.06679,-0.234762 0.08655,-0.354922 0.04244,-0.258032 0.06653,-0.518748 0.09979,-0.778122 0.0207,-0.379691 0.03869,-0.761201 0.0015,-1.140886 -0.04065,-0.414629 -0.14017,-0.818254 -0.318118,-1.196063 -0.196148,-0.341553 -0.241896,-0.462339 -0.512107,-0.760737 -0.468847,-0.517752 -1.079368,-0.869205 -1.703392,-1.165514 -0.151996,-0.05876 -0.301912,-0.123203 -0.455988,-0.176265 -0.252857,-0.08708 -0.462737,-0.138805 -0.721589,-0.186919 -0.162564,-0.03022 -0.255514,-0.04675 -0.414299,-0.03301 -0.03442,0.003 -0.06757,0.01447 -0.101358,0.0217 -0.0016,6.5e-5 0.0076,0.220395 0.0092,0.22033 z"
       id="path1006"
       style="fill:#80e5ff;fill-opacity:1;stroke:none;stroke-width:0;stroke-linejoin:bevel;stroke-opacity:1;paint-order:stroke markers fill" />
    <path
       d="m 31.945785,39.84322 c 0.02792,0.01201 0.05518,0.0257 0.08376,0.03602 0.104992,0.03792 0.290136,0.08902 0.385138,0.113878 0.248676,0.06506 0.575603,0.144422 0.821603,0.186736 0.176807,0.03041 0.355433,0.04909 0.53315,0.07364 0.181836,0.01691 0.363735,0.03316 0.545507,0.05074 0.526221,0.05091 0.506017,0.05761 1.014235,0.08875 0.310149,0.019 0.620895,0.02775 0.931108,0.04615 0.194723,0.01483 0.387706,0.05742 0.565756,0.139053 0.126111,0.05782 0.187101,0.09822 0.310411,0.170484 0.280952,0.157396 0.551378,0.332514 0.839664,0.476807 0.0058,0.0029 0.30497,0.14339 0.333808,0.156936 0.0025,0.001 0.144516,-0.358364 0.141975,-0.359368 v 0 C 38.31828,40.907762 38.289291,40.875692 38.134063,40.774252 37.860051,40.595187 37.557977,40.467969 37.253479,40.351133 36.940499,40.250221 36.636781,40.159964 36.352992,39.98658 36.143029,39.882882 36.061216,39.835826 35.826998,39.753131 35.189443,39.52803 34.51853,39.452492 33.84613,39.424169 c -0.181511,1.88e-4 -0.363194,-0.0074 -0.544531,5.63e-4 -0.445055,0.01945 -0.888662,0.09416 -1.32127,0.197747 -0.0016,-2.44e-4 -0.03611,0.2205 -0.03455,0.220744 z"
       id="path1008"
       style="fill:#80e5ff;fill-opacity:1;stroke:none;stroke-width:0;stroke-linejoin:bevel;stroke-opacity:1;paint-order:stroke markers fill" />
    <path
       d="m 42.428083,49.349078 c -0.274306,0.05764 -0.47046,0.292 -0.643946,0.494784 -0.199543,0.241983 -0.37092,0.507646 -0.487583,0.799762 -0.05504,0.137814 -0.09079,0.273917 -0.131966,0.416026 -0.100932,0.426272 -0.208794,0.850025 -0.343328,1.266985 -0.127199,0.371538 -0.228023,0.751253 -0.266497,1.142477 -0.07041,0.34419 0.0105,0.668877 0.06003,1.005909 0.02056,0.182843 0.04393,0.365592 0.04832,0.549691 0.0084,0.05479 -0.02708,0.296733 0.01599,0.03906 -0.0012,10e-4 0.146884,0.164622 0.148041,0.163575 v 0 c 0.01893,-0.122201 0.04409,-0.244067 0.05256,-0.367559 0.005,-0.199862 0.0039,-0.400483 -0.02477,-0.598792 -0.01577,-0.119796 -0.03369,-0.240449 -0.04245,-0.361017 -0.003,-0.04143 -0.0052,-0.08299 -0.0049,-0.124531 2.66e-4,-0.0435 0.01115,-0.08709 0.0065,-0.130345 -0.0034,-0.03207 -0.0068,0.06416 -0.01016,0.09624 0.02449,-0.159631 0.04783,-0.319128 0.09065,-0.47521 0.04452,-0.1623 0.06631,-0.202645 0.123726,-0.364316 0.02474,-0.06966 0.04822,-0.139751 0.07233,-0.209627 0.140739,-0.424115 0.265739,-0.85223 0.338464,-1.294054 0.0161,-0.06401 0.02909,-0.128891 0.04831,-0.192037 0.107023,-0.351632 0.300469,-0.665607 0.498927,-0.9717 0.03877,-0.06005 0.0784,-0.119549 0.116301,-0.180151 0.08007,-0.128034 0.149537,-0.264639 0.254947,-0.374794 0.02031,-0.02123 0.04412,-0.03881 0.0657,-0.05874 0.01741,-0.01609 0.03416,-0.03287 0.05125,-0.0493 0.0016,-2.57e-4 -0.03484,-0.222586 -0.03641,-0.222328 z"
       id="path1014"
       style="fill:#80e5ff;fill-opacity:1;stroke:none;stroke-width:0;stroke-linejoin:bevel;stroke-opacity:1;paint-order:stroke markers fill" />
    <path
       d="m 42.802815,51.808585 c -0.01851,0.01526 -0.03853,0.02884 -0.05551,0.04577 -0.06143,0.06123 -0.09175,0.108427 -0.140629,0.18199 -0.09686,0.145782 -0.178246,0.295938 -0.256935,0.452139 -0.149935,0.327124 -0.226238,0.680565 -0.270165,1.035951 -0.06058,0.323851 -0.04552,0.639008 0.03296,0.955827 0.03267,0.09772 0.05194,0.198258 0.07304,0.298694 0.0042,0.02103 0.01344,0.03913 0.02483,0.05689 9.76e-4,9.83e-4 0.139963,-0.137132 0.138987,-0.138114 v 0 c 0.0034,-0.02125 0.0052,-0.04262 0.0047,-0.06418 -0.0029,-0.117527 -0.01796,-0.234594 -0.01959,-0.352244 -0.0082,-0.156732 -0.0229,-0.314781 -0.02123,-0.471773 4.4e-4,-0.04148 0.01529,-0.08394 0.0057,-0.124305 -0.0073,-0.03077 -0.0086,0.06265 -0.01292,0.09397 0.05871,-0.323032 0.166748,-0.631374 0.276931,-0.940074 0.09917,-0.278477 0.210433,-0.551406 0.321707,-0.82507 0.0015,-7.2e-4 -0.100465,-0.206191 -0.101918,-0.20547 z"
       id="path1016"
       style="fill:#80e5ff;fill-opacity:1;stroke:none;stroke-width:0;stroke-linejoin:bevel;stroke-opacity:1;paint-order:stroke markers fill" />
    <path
       d="m 20.823907,34.544656 c -0.06068,-0.08334 -0.136759,-0.154864 -0.186453,-0.246248 -0.05151,-0.09472 -0.06542,-0.153718 -0.101007,-0.259453 -0.11139,-0.392401 -0.254559,-0.774554 -0.377198,-1.163276 -0.06557,-0.234664 -0.114749,-0.47884 -0.108558,-0.723951 0.0042,-0.166045 -0.03872,-0.156315 0.02494,-0.165877 0.02827,-0.123998 0.0721,-0.243424 0.112319,-0.363808 0.0011,-7.55e-4 -0.105625,-0.158739 -0.106742,-0.157984 v 0 c -0.05627,0.112173 -0.116502,0.222792 -0.155073,0.342845 -0.01889,0.106032 -0.04234,0.211351 -0.05667,0.318094 -0.04245,0.316187 0.0337,0.635017 0.112735,0.938638 0.116009,0.390492 0.2457,0.777584 0.40793,1.151594 0.09579,0.176408 0.199853,0.34134 0.369281,0.455988 8.95e-4,4.56e-4 0.06539,-0.126106 0.0645,-0.126562 z"
       id="path1022"
       style="fill:#80e5ff;fill-opacity:1;stroke:none;stroke-width:0;stroke-linejoin:bevel;stroke-opacity:1;paint-order:stroke markers fill" />
    <path
       d="m 22.262853,37.005588 c -0.02435,0.304169 0.141427,0.567505 0.294213,0.815917 0.341628,0.517883 0.839351,0.889324 1.347113,1.230698 0.420025,0.265197 0.88424,0.454378 1.366403,0.572102 0.09765,0.02384 0.196602,0.04196 0.294903,0.06294 0.404002,0.05213 0.837544,0.128147 1.233648,-0.0067 0.0017,4.1e-5 0.0075,-0.238213 0.0058,-0.238254 v 0 c -0.381603,-0.09873 -0.783926,-0.0845 -1.166447,-0.181959 -0.234591,-0.0489 -0.328836,-0.06342 -0.558401,-0.131626 -0.361236,-0.107319 -0.698159,-0.268717 -1.007374,-0.484888 -0.250436,-0.18329 -0.492538,-0.373585 -0.732872,-0.56993 -0.170331,-0.139155 -0.281136,-0.223687 -0.437121,-0.374388 -0.05419,-0.05236 -0.104029,-0.109035 -0.156044,-0.163553 -0.03804,-0.04835 -0.07895,-0.09457 -0.114125,-0.145041 -0.107355,-0.154066 -0.175772,-0.32779 -0.212034,-0.511133 -8.9e-4,-0.0011 -0.158554,0.124741 -0.157664,0.125856 z"
       id="path1024"
       style="fill:#80e5ff;fill-opacity:1;stroke:none;stroke-width:0;stroke-linejoin:bevel;stroke-opacity:1;paint-order:stroke markers fill" />
    <path
       d="m 11.430128,27.346049 a 2.4987698,2.4987698 0 0 0 -2.4941409,2.355468 2.4987698,2.4987698 0 0 0 -1.109375,-0.261718 2.4987698,2.4987698 0 0 0 -2.5,2.498047 2.4987698,2.4987698 0 0 0 2.2753906,2.488281 v 0.105469 h 6.7402343 a 2.4987698,2.4987698 0 0 0 0.527344,0.05664 2.4987698,2.4987698 0 0 0 2.498047,-2.5 2.4987698,2.4987698 0 0 0 -2.498047,-2.498047 2.4987698,2.4987698 0 0 0 -0.941406,0.183594 2.4987698,2.4987698 0 0 0 -2.498047,-2.427734 z"
       style="fill:#2ca05a;fill-opacity:1;stroke:none;stroke-width:0;stroke-linejoin:bevel;stroke-opacity:1;paint-order:stroke markers fill"
       id="path1042" />
    <path
       id="path1042-3"
       style="fill:#2ca05a;fill-opacity:1;stroke:none;stroke-width:0;stroke-linejoin:bevel;stroke-opacity:1;paint-order:stroke markers fill"
       d="m 42.824395,23.985548 a 3.4170218,3.4170218 0 0 0 -3.410692,3.221059 3.4170218,3.4170218 0 0 0 -1.51705,-0.357894 3.4170218,3.4170218 0 0 0 -3.418704,3.416033 3.4170218,3.4170218 0 0 0 3.111555,3.402679 v 0.144226 h 9.217146 a 3.4170218,3.4170218 0 0 0 0.721134,0.07746 3.4170218,3.4170218 0 0 0 3.416033,-3.418704 3.4170218,3.4170218 0 0 0 -3.416033,-3.416034 3.4170218,3.4170218 0 0 0 -1.287356,0.251062 3.4170218,3.4170218 0 0 0 -3.416033,-3.319882 z" />
    <path
       id="path1042-5"
       style="fill:#2ca05a;fill-opacity:1;stroke:none;stroke-width:0;stroke-linejoin:bevel;stroke-opacity:1;paint-order:stroke markers fill"
       d="m 23.29279,44.458165 a 2.9154103,2.9154103 0 0 0 -2.910009,2.748215 2.9154103,2.9154103 0 0 0 -1.29435,-0.305357 2.9154103,2.9154103 0 0 0 -2.916846,2.914567 2.9154103,2.9154103 0 0 0 2.654785,2.903173 v 0.123054 h 7.864089 a 2.9154103,2.9154103 0 0 0 0.615273,0.06608 2.9154103,2.9154103 0 0 0 2.914567,-2.916845 2.9154103,2.9154103 0 0 0 -2.914567,-2.914567 2.9154103,2.9154103 0 0 0 -1.098375,0.214206 2.9154103,2.9154103 0 0 0 -2.914567,-2.83253 z" />
  </g>
</svg>
