<?xml version="1.0" encoding="UTF-8" standalone="no"?>
<svg
   xmlns:osb="http://www.openswatchbook.org/uri/2009/osb"
   xmlns:dc="http://purl.org/dc/elements/1.1/"
   xmlns:cc="http://creativecommons.org/ns#"
   xmlns:rdf="http://www.w3.org/1999/02/22-rdf-syntax-ns#"
   xmlns:svg="http://www.w3.org/2000/svg"
   xmlns="http://www.w3.org/2000/svg"
   xmlns:sodipodi="http://sodipodi.sourceforge.net/DTD/sodipodi-0.dtd"
   xmlns:inkscape="http://www.inkscape.org/namespaces/inkscape"
   sodipodi:docname="rope.svg"
   inkscape:version="1.0 (4035a4fb49, 2020-05-01)"
   id="svg8"
   version="1.1"
   viewBox="0 0 60.472444 60.472438"
   height="16mm"
   width="16mm"
   inkscape:export-filename="/home/bert/dev/notpokemongo/assets/rope.png"
   inkscape:export-xdpi="203.2"
   inkscape:export-ydpi="203.2">
  <defs
     id="defs2">
    <inkscape:path-effect
       only_selected="false"
       apply_with_weight="true"
       apply_no_weight="true"
       helper_size="0"
       steps="2"
       weight="33.333333"
       lpeversion="1"
       is_visible="true"
       id="path-effect1024"
       effect="bspline" />
    <inkscape:path-effect
       effect="bspline"
       id="path-effect1022"
       is_visible="true"
       lpeversion="1"
       weight="33.333333"
       steps="2"
       helper_size="0"
       apply_no_weight="true"
       apply_with_weight="true"
       only_selected="false" />
    <inkscape:path-effect
       effect="bspline"
       id="path-effect1020"
       is_visible="true"
       lpeversion="1"
       weight="33.333333"
       steps="2"
       helper_size="0"
       apply_no_weight="true"
       apply_with_weight="true"
       only_selected="false" />
    <inkscape:path-effect
       effect="bspline"
       id="path-effect991"
       is_visible="true"
       lpeversion="1"
       weight="33.333333"
       steps="2"
       helper_size="0"
       apply_no_weight="true"
       apply_with_weight="true"
       only_selected="false" />
    <inkscape:path-effect
       effect="bspline"
       id="path-effect986"
       is_visible="true"
       lpeversion="1"
       weight="33.333333"
       steps="2"
       helper_size="0"
       apply_no_weight="true"
       apply_with_weight="true"
       only_selected="false" />
    <inkscape:path-effect
       only_selected="false"
       apply_with_weight="true"
       apply_no_weight="true"
       helper_size="0"
       steps="2"
       weight="33.333333"
       lpeversion="1"
       is_visible="true"
       id="path-effect982"
       effect="bspline" />
    <inkscape:path-effect
       only_selected="false"
       apply_with_weight="true"
       apply_no_weight="true"
       helper_size="0"
       steps="2"
       weight="33.333333"
       lpeversion="1"
       is_visible="true"
       id="path-effect973"
       effect="bspline" />
    <inkscape:path-effect
       effect="bspline"
       id="path-effect954"
       is_visible="true"
       lpeversion="1"
       weight="33.333333"
       steps="2"
       helper_size="0"
       apply_no_weight="true"
       apply_with_weight="true"
       only_selected="false" />
    <inkscape:path-effect
       only_selected="false"
       apply_with_weight="true"
       apply_no_weight="true"
       helper_size="0"
       steps="2"
       weight="33.333333"
       lpeversion="1"
       is_visible="true"
       id="path-effect935"
       effect="bspline" />
    <inkscape:path-effect
       effect="bspline"
       id="path-effect916"
       is_visible="true"
       lpeversion="1"
       weight="33.333333"
       steps="2"
       helper_size="0"
       apply_no_weight="true"
       apply_with_weight="true"
       only_selected="false" />
    <inkscape:path-effect
       only_selected="false"
       apply_with_weight="true"
       apply_no_weight="true"
       helper_size="0"
       steps="2"
       weight="33.333333"
       lpeversion="1"
       is_visible="true"
       id="path-effect897"
       effect="bspline" />
    <linearGradient
       id="linearGradient876"
       osb:paint="solid">
      <stop
         style="stop-color:#ca9f2e;stop-opacity:1;"
         offset="0"
         id="stop874" />
    </linearGradient>
    <inkscape:path-effect
       effect="bspline"
       id="path-effect872"
       is_visible="true"
       lpeversion="1"
       weight="33.333333"
       steps="2"
       helper_size="0"
       apply_no_weight="true"
       apply_with_weight="true"
       only_selected="false" />
    <inkscape:path-effect
       effect="bspline"
       id="path-effect868"
       is_visible="true"
       lpeversion="1"
       weight="33.333333"
       steps="2"
       helper_size="0"
       apply_no_weight="true"
       apply_with_weight="true"
       only_selected="false" />
    <inkscape:path-effect
       effect="bspline"
       id="path-effect864"
       is_visible="true"
       lpeversion="1"
       weight="33.333333"
       steps="2"
       helper_size="0"
       apply_no_weight="true"
       apply_with_weight="true"
       only_selected="false" />
    <inkscape:path-effect
       effect="bspline"
       id="path-effect1817" />
    <inkscape:path-effect
       effect="bspline"
       id="path-effect1813"
       is_visible="true"
       lpeversion="1"
       weight="33.333333"
       steps="2"
       helper_size="0"
       apply_no_weight="true"
       apply_with_weight="true"
       only_selected="false" />
    <inkscape:path-effect
       effect="bspline"
       id="path-effect1776"
       is_visible="true"
       lpeversion="1"
       weight="33.333333"
       steps="2"
       helper_size="0"
       apply_no_weight="true"
       apply_with_weight="true"
       only_selected="false" />
    <inkscape:path-effect
       only_selected="false"
       apply_with_weight="true"
       apply_no_weight="true"
       helper_size="0"
       steps="2"
       weight="33.333333"
       lpeversion="1"
       is_visible="true"
       id="path-effect1757"
       effect="bspline" />
    <inkscape:path-effect
       effect="bspline"
       id="path-effect1738"
       is_visible="true"
       lpeversion="1"
       weight="33.333333"
       steps="2"
       helper_size="0"
       apply_no_weight="true"
       apply_with_weight="true"
       only_selected="false" />
    <inkscape:path-effect
       effect="bspline"
       id="path-effect1734"
       is_visible="true"
       lpeversion="1"
       weight="33.333333"
       steps="2"
       helper_size="0"
       apply_no_weight="true"
       apply_with_weight="true"
       only_selected="false" />
    <inkscape:path-effect
       effect="bspline"
       id="path-effect1710"
       is_visible="true"
       lpeversion="1"
       weight="33.333333"
       steps="2"
       helper_size="0"
       apply_no_weight="true"
       apply_with_weight="true"
       only_selected="false" />
    <inkscape:path-effect
       only_selected="false"
       apply_with_weight="true"
       apply_no_weight="true"
       helper_size="0"
       steps="2"
       weight="33.333333"
       lpeversion="1"
       is_visible="true"
       id="path-effect1706"
       effect="bspline" />
    <inkscape:path-effect
       effect="bspline"
       id="path-effect1704"
       is_visible="true"
       lpeversion="1"
       weight="33.333333"
       steps="2"
       helper_size="0"
       apply_no_weight="true"
       apply_with_weight="true"
       only_selected="false" />
    <inkscape:path-effect
       effect="bspline"
       id="path-effect1680"
       is_visible="true"
       lpeversion="1"
       weight="33.333333"
       steps="2"
       helper_size="0"
       apply_no_weight="true"
       apply_with_weight="true"
       only_selected="false" />
    <inkscape:path-effect
       only_selected="false"
       apply_with_weight="true"
       apply_no_weight="true"
       helper_size="0"
       steps="2"
       weight="33.333333"
       lpeversion="1"
       is_visible="true"
       id="path-effect1661"
       effect="bspline" />
    <inkscape:path-effect
       effect="bspline"
       id="path-effect1642"
       is_visible="true"
       lpeversion="1"
       weight="33.333333"
       steps="2"
       helper_size="0"
       apply_no_weight="true"
       apply_with_weight="true"
       only_selected="false" />
    <inkscape:perspective
       sodipodi:type="inkscape:persp3d"
       inkscape:vp_x="-162.27851 : 244.86675 : 1"
       inkscape:vp_y="0 : 12677.225 : 0"
       inkscape:vp_z="414.21372 : 244.86675 : 1"
       inkscape:persp3d-origin="125.96761 : 117.09629 : 1"
       id="perspective1025" />
    <inkscape:path-effect
       effect="bspline"
       id="path-effect915"
       is_visible="true"
       lpeversion="1"
       weight="33.333333"
       steps="2"
       helper_size="0"
       apply_no_weight="true"
       apply_with_weight="true"
       only_selected="false" />
    <inkscape:path-effect
       only_selected="false"
       apply_with_weight="true"
       apply_no_weight="true"
       helper_size="0"
       steps="2"
       weight="33.333333"
       lpeversion="1"
       is_visible="true"
       id="path-effect893"
       effect="bspline" />
    <inkscape:path-effect
       effect="bspline"
       id="path-effect874"
       is_visible="true"
       lpeversion="1"
       weight="33.333333"
       steps="2"
       helper_size="0"
       apply_no_weight="true"
       apply_with_weight="true"
       only_selected="false" />
    <inkscape:path-effect
       effect="bspline"
       id="path-effect870"
       is_visible="true"
       lpeversion="1"
       weight="33.333333"
       steps="2"
       helper_size="0"
       apply_no_weight="true"
       apply_with_weight="true"
       only_selected="false" />
    <inkscape:path-effect
       effect="bspline"
       id="path-effect1119"
       is_visible="true"
       lpeversion="1"
       weight="33.333333"
       steps="2"
       helper_size="0"
       apply_no_weight="true"
       apply_with_weight="true"
       only_selected="false" />
    <inkscape:path-effect
       effect="bspline"
       id="path-effect1115"
       is_visible="true"
       lpeversion="1"
       weight="33.333333"
       steps="2"
       helper_size="0"
       apply_no_weight="true"
       apply_with_weight="true"
       only_selected="false" />
    <inkscape:path-effect
       effect="bspline"
       id="path-effect990"
       is_visible="true"
       lpeversion="1"
       weight="33.333333"
       steps="2"
       helper_size="0"
       apply_no_weight="true"
       apply_with_weight="true"
       only_selected="false" />
    <inkscape:path-effect
       effect="bspline"
       id="path-effect966"
       is_visible="true"
       lpeversion="1"
       weight="33.333333"
       steps="2"
       helper_size="0"
       apply_no_weight="true"
       apply_with_weight="true"
       only_selected="false" />
    <inkscape:path-effect
       only_selected="false"
       apply_with_weight="true"
       apply_no_weight="true"
       helper_size="0"
       steps="2"
       weight="33.333333"
       lpeversion="1"
       is_visible="true"
       id="path-effect947"
       effect="bspline" />
    <inkscape:path-effect
       effect="bspline"
       id="path-effect892"
       is_visible="true"
       lpeversion="1"
       weight="33.333333"
       steps="2"
       helper_size="0"
       apply_no_weight="true"
       apply_with_weight="true"
       only_selected="false" />
    <inkscape:path-effect
       effect="bspline"
       id="path-effect881"
       is_visible="true"
       lpeversion="1"
       weight="33.333333"
       steps="2"
       helper_size="0"
       apply_no_weight="true"
       apply_with_weight="true"
       only_selected="false" />
    <inkscape:path-effect
       effect="bspline"
       id="path-effect877"
       is_visible="true"
       lpeversion="1"
       weight="33.333333"
       steps="2"
       helper_size="0"
       apply_no_weight="true"
       apply_with_weight="true"
       only_selected="false" />
    <linearGradient
       osb:paint="solid"
       id="linearGradient1428">
      <stop
         id="stop1426"
         offset="0"
         style="stop-color:#e0e0e0;stop-opacity:1;" />
    </linearGradient>
  </defs>
  <sodipodi:namedview
     inkscape:snap-nodes="false"
     inkscape:window-maximized="1"
     inkscape:window-y="34"
     inkscape:window-x="53"
     inkscape:window-height="1018"
     inkscape:window-width="1867"
     units="mm"
     showgrid="false"
     inkscape:document-rotation="0"
     inkscape:current-layer="layer1"
     inkscape:document-units="px"
     inkscape:cy="26.382962"
     inkscape:cx="20.358513"
     inkscape:zoom="8.8719805"
     inkscape:pageshadow="2"
     inkscape:pageopacity="0.0"
     borderopacity="1.0"
     bordercolor="#666666"
     pagecolor="#ffffff"
     id="base"
     width="64px"
     scale-x="1"
     inkscape:object-paths="false"
     inkscape:object-nodes="true"
     showguides="false" />
  <metadata
     id="metadata5">
    <rdf:RDF>
      <cc:Work
         rdf:about="">
        <dc:format>image/svg+xml</dc:format>
        <dc:type
           rdf:resource="http://purl.org/dc/dcmitype/StillImage" />
        <dc:title />
      </cc:Work>
    </rdf:RDF>
  </metadata>
  <g
     id="layer1"
     inkscape:groupmode="layer"
     inkscape:label="Layer 1">
    <path
       style="fill:#e6ce6e;fill-opacity:1;stroke:none;stroke-width:4.38319;stroke-linecap:butt;stroke-linejoin:miter;stroke-miterlimit:4;stroke-dasharray:none;stroke-opacity:1"
       d="m 17.487266,-45.117946 c -2.301857,-3.262361 -4.787587,-4.460298 -8.577695,-5.657814 -3.7901082,-1.197516 -8.88416029,-2.39416 -12.3938599,1.683518 -3.5096996,4.077677 -5.4331719,13.428709 -11.8274331,19.040537 -6.39426,5.611828 -17.259442,7.484686 -22.100995,12.224048 -4.841553,4.739361 -3.658058,12.3434568 0.642496,16.91810993 4.300554,4.57465317 11.716604,6.12053567 17.957928,2.41469147 C -12.570969,-2.2006999 -7.5037118,-11.157786 -0.55908451,-17.485139 6.3855428,-23.812491 15.205832,-27.50859 18.556818,-32.019093 c 3.350986,-4.510503 1.232305,-9.836493 -1.069552,-13.098853 z"
       id="path870"
       inkscape:path-effect="#path-effect872"
       inkscape:original-d="m 17.669884,-47.182975 c -2.484669,-1.196929 -4.970399,-2.394866 -7.457353,-3.593889 -5.0932402,-1.19568 -10.18729222,-2.392324 -15.2827712,-3.590075 -1.922592,9.352612 -3.846064,18.703644 -5.7706478,28.054219 -10.864898,1.873982 -21.73008,3.74684 -32.597107,5.618844 1.184661,7.605434 2.368156,15.2095301 3.550554,22.8127401 7.417614,1.547011 14.833664,3.092893 22.249039,4.637833 5.068619,-8.956726 10.1358768,-17.9138121 15.2025438,-26.8726241 8.821907,-3.695357 17.6421962,-7.391456 26.4619232,-11.088738 -2.117649,-5.325174 -4.236331,-10.651164 -6.356181,-15.97831 z"
       sodipodi:nodetypes="cccccccccc" />
    <path
       sodipodi:nodetypes="cccccccccc"
       inkscape:original-d="m 10.211218,-42.260194 c -1.7799122,-0.898763 -3.5605842,-1.798282 -5.3421322,-2.698617 -3.648581,-0.897825 -7.297744,-1.796374 -10.94793,-2.695755 -1.554338,6.983972 -3.109623,13.966706 -4.6660418,20.949043 -7.605681,1.446316 -15.211663,2.8915 -22.818992,4.335749 0.848641,5.710851 1.696446,11.420695 2.543466,17.1298771 5.313664,1.161635 10.626209,2.322424 15.938271,3.482504 3.015055,-7.099384 6.0288728,-14.1992091 9.0418208,-21.3003411 6.93596398,-2.400504 13.870632,-4.801906 20.8048372,-7.204494 -1.516994,-3.998623 -3.034728,-7.99786 -4.553299,-11.997966 z"
       inkscape:path-effect="#path-effect897"
       id="path870-3"
       d="m 10.080401,-40.709587 c -1.6489452,-2.449667 -3.4296171,-3.349186 -6.1446892,-4.248391 -2.7150722,-0.899205 -6.3642353,-1.797754 -8.967147,1.244685 -2.6029118,3.04244 -4.1581966,10.025174 -8.7387738,14.239056 -4.580576,4.213882 -12.186558,5.659065 -15.566129,9.237239 -3.379571,3.578175 -2.531766,9.288019 0.548975,12.7230901 3.080741,3.4350713 8.393286,4.5958597 12.556178,1.6262391 4.162892,-2.9696205 7.1767098,-10.0694452 12.1515611,-14.8206082 4.9748513,-4.751163 11.9095194,-7.152565 14.6181119,-10.352486 2.708592,-3.19992 1.190858,-7.199157 -0.458087,-9.648824 z"
       style="fill:#dcba30;fill-opacity:1;stroke:none;stroke-width:2.215;stroke-linecap:butt;stroke-linejoin:miter;stroke-miterlimit:4;stroke-dasharray:none;stroke-opacity:1" />
    <path
       style="fill:#e6ce6e;fill-opacity:1;stroke:none;stroke-width:2.235;stroke-linecap:butt;stroke-linejoin:miter;stroke-miterlimit:4;stroke-dasharray:none;stroke-opacity:1"
       d="m 3.5885936,-35.753695 c -1.1463464,-1.703009 -2.3842698,-2.328355 -4.27178747,-2.953482 -1.88751763,-0.625128 -4.42441553,-1.249799 -5.83038423,1.141692 -1.4059686,2.391491 -1.6801606,7.798483 -4.8645829,10.727923 -3.184422,2.92944 -9.279109,3.381535 -12.032172,5.592744 -2.753063,2.211209 -2.163668,6.180692 -0.02194,8.568753 2.141731,2.388061 5.835012,3.1950414 8.587485,0.984242 2.752473,-2.2108 4.564561,-7.439285 8.0231086,-10.742317 3.4585473,-3.303033 8.5626466,-4.679803 10.5871962,-6.758041 2.0245495,-2.078238 0.9694212,-4.858506 -0.1769252,-6.561514 z"
       id="path870-3-6"
       inkscape:path-effect="#path-effect916"
       inkscape:original-d="m 3.6795378,-36.831677 c -1.237395,-0.62482 -2.475318,-1.250167 -3.71385002,-1.876079 -2.53649298,-0.624168 -5.07339098,-1.248839 -7.61099898,-1.874089 -0.273188,5.407904 -0.547379,10.814896 -0.822609,16.221629 -6.0945838,0.453162 -12.1892708,0.905258 -18.2849838,1.356355 0.589976,3.970183 1.179369,7.939666 1.768218,11.908688 3.694059,0.807569 7.387339,1.6145501 11.080284,2.4210371 1.812754,-5.2282571 3.624843,-10.4567411 5.4364818,-15.6860801 5.104964,-1.376312 10.209063,-2.753084 15.312911,-4.130477 -1.054614,-2.779843 -2.109743,-5.560111 -3.165453,-8.340984 z"
       sodipodi:nodetypes="cccccccccc" />
    <path
       inkscape:original-d="m -18.561261,-27.973167 c -0.42661,-0.521625 -0.852791,-1.04395 -1.278542,-1.566971 -0.759365,0.403066 -1.51827,0.805417 -2.276759,1.20708 -0.805504,1.088824 -1.610542,2.176906 -2.415169,3.264312 -0.166473,2.67073 -0.332508,5.340657 -0.498117,8.009939 1.773862,2.17062 3.548081,4.340457 5.322767,6.509641 2.129944,0.6326211 4.260233,1.2645201 6.390993,1.8957351 1.838621,-0.02295 3.6775978,-0.04659 5.5170438,-0.07093 0.534968,-0.839345 1.070345,-1.6793541 1.606164,-2.5200761 -1.609625,-0.03298 -3.218756,-0.06666 -4.8274868,-0.101032 -2.196445,-0.748993 -4.392371,-1.498652 -6.587913,-2.249023 -1.201363,-1.827633 -2.402248,-3.655891 -3.602726,-5.484882 0.02104,-1.736695 0.04252,-3.474017 0.06441,-5.212072 0.861366,-1.226566 1.723128,-2.453781 2.585336,-3.681718 z"
       inkscape:path-effect="#path-effect935"
       id="path1732-5-6-7"
       d="m -18.774266,-28.234224 c -0.213005,-0.261058 -0.639186,-0.783382 -1.232141,-0.843298 -0.592955,-0.05992 -1.35186,0.342435 -2.133787,1.087841 -0.781927,0.745406 -1.586966,1.833487 -2.072295,3.712588 -0.485329,1.879101 -0.651365,4.549028 0.152868,6.968722 0.804233,2.419695 2.578453,4.589531 4.530581,5.9903 1.952128,1.4007686 4.082417,2.0326678 6.06699,2.3368349 1.984574,0.304167 3.8235509,0.2805242 5.0107575,-0.1509759 1.1872066,-0.4315001 1.7225841,-1.271509 1.1856931,-1.70871 -0.536891,-0.437202 -2.1460221,-0.470878 -4.0484886,-0.862587 -1.902466,-0.391708 -4.098392,-1.141367 -5.796663,-2.430195 -1.698271,-1.288829 -2.899156,-3.117087 -3.488975,-4.899723 -0.589818,-1.782637 -0.568349,-3.519959 -0.126946,-5.002286 0.441402,-1.482327 1.303163,-2.709542 1.734288,-3.323497 0.431124,-0.613954 0.431123,-0.613957 0.218118,-0.875014 z"
       style="fill:#decd87;stroke:#e0c06e;stroke-width:0.587008px;stroke-linecap:butt;stroke-linejoin:miter;stroke-opacity:1" />
    <path
       style="fill:#decd87;stroke:#e0c06e;stroke-width:0.587008px;stroke-linecap:butt;stroke-linejoin:miter;stroke-opacity:1"
       d="m -15.308409,-30.618816 c -0.213005,-0.261058 -0.639186,-0.783382 -1.232141,-0.843298 -0.592955,-0.05992 -1.35186,0.342435 -2.133787,1.087841 -0.781927,0.745406 -1.586966,1.833487 -2.072295,3.712588 -0.485329,1.879101 -0.651365,4.549028 0.152868,6.968722 0.804233,2.419695 2.578453,4.589531 4.530581,5.9903 1.952128,1.400769 4.082417,2.032668 6.0669903,2.336835 1.9845737,0.304167 3.8235506,0.280524 5.0107572,-0.150976 1.1872066,-0.4315 1.722584,-1.271509 1.1856931,-1.70871 -0.536891,-0.437202 -2.1460221,-0.470878 -4.0484885,-0.862587 -1.9024665,-0.391708 -4.0983921,-1.141367 -5.7966631,-2.430195 -1.698271,-1.288829 -2.899156,-3.117087 -3.488975,-4.899723 -0.589818,-1.782637 -0.568349,-3.519959 -0.126946,-5.002286 0.441402,-1.482327 1.303163,-2.709542 1.734288,-3.323497 0.431124,-0.613954 0.431123,-0.613957 0.218118,-0.875014 z"
       id="path1732-5-6-7-5"
       inkscape:path-effect="#path-effect954"
       inkscape:original-d="m -15.095404,-30.357759 c -0.42661,-0.521625 -0.852791,-1.04395 -1.278542,-1.566971 -0.759365,0.403066 -1.51827,0.805417 -2.276759,1.20708 -0.805504,1.088824 -1.610542,2.176906 -2.415169,3.264312 -0.166473,2.67073 -0.332508,5.340657 -0.498117,8.009939 1.773862,2.17062 3.548081,4.340457 5.322767,6.509641 2.129944,0.632621 4.260233,1.26452 6.3909928,1.895735 1.838621,-0.02295 3.677598,-0.04659 5.517044,-0.07093 0.534968,-0.839345 1.070345,-1.679354 1.606164,-2.520076 -1.609625,-0.03298 -3.218756,-0.06666 -4.827487,-0.101032 -2.196445,-0.748993 -4.3923708,-1.498652 -6.5879128,-2.249023 -1.201363,-1.827633 -2.402248,-3.655891 -3.602726,-5.484882 0.02104,-1.736695 0.04252,-3.474017 0.06441,-5.212072 0.861366,-1.226566 1.723128,-2.453781 2.585336,-3.681718 z" />
    <path
       inkscape:original-d="m -11.768238,-32.624368 c -0.42661,-0.521625 -0.852791,-1.04395 -1.278542,-1.566971 -0.759365,0.403066 -1.51827,0.805417 -2.276759,1.20708 -0.805504,1.088824 -1.610542,2.176906 -2.415169,3.264312 -0.166473,2.67073 -0.332508,5.340657 -0.498117,8.009938 1.773862,2.17062 3.548081,4.340457 5.322767,6.509641 2.129944,0.632621 4.2602328,1.26452 6.3909928,1.895735 1.838621,-0.02295 3.677598,-0.04659 5.517044,-0.07093 0.53496798,-0.839345 1.07034498,-1.679354 1.60616398,-2.520076 -1.60962498,-0.03298 -3.21875598,-0.06666 -4.82748698,-0.101032 -2.196445,-0.748993 -4.392371,-1.498652 -6.5879128,-2.249023 -1.201363,-1.827633 -2.402248,-3.655891 -3.602726,-5.484882 0.02104,-1.736694 0.04252,-3.474016 0.06441,-5.212071 0.861366,-1.226566 1.723128,-2.453781 2.585336,-3.681718 z"
       inkscape:path-effect="#path-effect973"
       id="path1732-5-6-7-5-3"
       d="m -11.981243,-32.885425 c -0.213005,-0.261058 -0.639186,-0.783382 -1.232141,-0.843298 -0.592955,-0.05992 -1.35186,0.342435 -2.133787,1.087841 -0.781927,0.745406 -1.586966,1.833487 -2.072295,3.712588 -0.485329,1.879101 -0.651365,4.549028 0.152868,6.968722 0.804233,2.419694 2.578453,4.58953 4.530581,5.990299 1.952128,1.400769 4.0824164,2.032668 6.0669902,2.336835 1.9845738,0.304167 3.8235507,0.280524 5.0107573,-0.150976 1.18720661,-0.4315 1.72258403,-1.271509 1.18569306,-1.70871 -0.53689096,-0.437202 -2.14602206,-0.470878 -4.04848846,-0.862587 -1.9024665,-0.391708 -4.0983925,-1.141367 -5.7966631,-2.430195 -1.698271,-1.288829 -2.899156,-3.117087 -3.488975,-4.899723 -0.589818,-1.782636 -0.568349,-3.519958 -0.126946,-5.002285 0.441402,-1.482327 1.303163,-2.709542 1.734288,-3.323497 0.431124,-0.613954 0.431123,-0.613957 0.218118,-0.875014 z"
       style="fill:#decd87;stroke:#e0c06e;stroke-width:0.587008px;stroke-linecap:butt;stroke-linejoin:miter;stroke-opacity:1" />
    <path
       inkscape:original-d="m -9.1258882,-35.365694 c -0.42661,-0.521625 -0.852791,-1.04395 -1.2785418,-1.566971 -0.759365,0.403066 -1.51827,0.805417 -2.276759,1.20708 -0.805504,1.088824 -1.610542,2.176906 -2.415169,3.264312 -0.166473,2.67073 -0.332508,5.340657 -0.498117,8.009939 1.773862,2.17062 3.548081,4.340457 5.322767,6.509641 2.1299438,0.632621 4.2602328,1.26452 6.3909928,1.895735 1.838621,-0.02295 3.67759798,-0.04659 5.517044,-0.07093 0.534968,-0.839345 1.070345,-1.679354 1.606164,-2.520076 -1.609625,-0.03298 -3.21875602,-0.06666 -4.827487,-0.101032 -2.196445,-0.748993 -4.392371,-1.498652 -6.587913,-2.249023 -1.201363,-1.827633 -2.4022478,-3.655891 -3.6027258,-5.484882 0.02104,-1.736695 0.04252,-3.474017 0.06441,-5.212072 0.861366,-1.226566 1.7231278,-2.453781 2.5853358,-3.681718 z"
       inkscape:path-effect="#path-effect982"
       id="path1732-5-6-7-5-5"
       d="m -9.3388932,-35.626751 c -0.213005,-0.261058 -0.6391864,-0.783382 -1.2321418,-0.843299 -0.592954,-0.05992 -1.351859,0.342436 -2.133786,1.087842 -0.781927,0.745406 -1.586966,1.833487 -2.072295,3.712588 -0.485329,1.879101 -0.651365,4.549028 0.152868,6.968722 0.804233,2.419695 2.578453,4.589531 4.530581,5.9903 1.9521275,1.400768 4.0824164,2.032668 6.0669902,2.336835 1.9845738,0.304167 3.8235507,0.280524 5.01075731,-0.150976 1.18720659,-0.4315 1.72258399,-1.271509 1.18569309,-1.70871 -0.536891,-0.437202 -2.1460221,-0.470878 -4.0484886,-0.862587 -1.9024664,-0.391708 -4.0983924,-1.141367 -5.7966634,-2.430195 -1.698271,-1.288829 -2.8991556,-3.117087 -3.4889746,-4.899723 -0.589818,-1.782637 -0.568349,-3.519959 -0.126947,-5.002286 0.441403,-1.482327 1.3031643,-2.709542 1.7342885,-3.323497 0.4311243,-0.613954 0.4311233,-0.613957 0.2181183,-0.875014 z"
       style="fill:#decd87;stroke:#e0c06e;stroke-width:0.587008px;stroke-linecap:butt;stroke-linejoin:miter;stroke-opacity:1" />
    <path
       style="fill:#e0d6ad;fill-opacity:1;stroke:#e1c32c;stroke-width:2.83998;stroke-linecap:butt;stroke-linejoin:miter;stroke-miterlimit:4;stroke-dasharray:none;stroke-opacity:1"
       d="m 27.853561,29.198748 c 0,0 0,0 -2.43355,1.33154 -2.43355,1.331541 -7.300765,3.994685 -8.213377,6.525297 -0.912612,2.530611 2.128637,4.927559 4.561699,3.595776 2.433062,-1.331784 4.258992,-6.391775 8.190427,-9.893885 3.931434,-3.50211 9.967266,-5.445234 10.924061,-8.245148 0.956796,-2.799914 -3.16583,-6.457486 -6.193547,-5.531159 -3.027717,0.926328 -4.959145,6.436617 -10.22391,11.026865 C 19.2006,32.598283 10.602497,36.268682 9.2758258,41.037529 7.9491549,45.806375 13.893572,51.671981 18.741137,50.290868 23.588703,48.909755 27.339975,40.282555 33.951548,33.749584 40.563122,27.216612 50.033608,22.779298 50.314961,17.711232 50.596314,12.643165 41.687805,6.9440805 36.306458,8.6246088 30.925112,10.305137 29.072809,19.365041 22.102791,25.580019 15.132773,31.794996 3.0451158,35.165199 1.4758638,42.033163 -0.09338818,48.901128 8.8556996,59.264862 15.841798,58.413794 22.827896,57.562726 27.85123,45.497472 36.302997,36.144772 44.754764,26.792072 56.633453,20.153692 57.719317,13.493668 58.805181,6.8336432 49.097321,0.15187257 41.2985,1.6509716 33.499678,3.1500706 27.611951,12.830505 21.724279,22.51085"
       id="path988"
       inkscape:path-effect="#path-effect991"
       inkscape:original-d="m 27.853561,29.198748 c 9.22e-4,9.47e-4 9.22e-4,9.47e-4 0,0 -4.866488,2.664199 -9.733704,5.327343 -14.601939,7.989593 3.042292,2.397992 6.083542,4.794939 9.123929,7.190988 1.826962,-5.059348 3.652892,-10.11934 5.47801,-15.180581 6.036996,-1.942255 12.072828,-3.885379 18.107861,-5.829489 C 41.839552,19.712487 37.716927,16.054914 33.593296,12.396321 31.662674,17.907888 29.731245,23.418177 27.79878,28.92785 19.201084,32.599417 10.602981,36.269817 2.0034404,39.939489 7.9491364,45.806394 13.893553,51.672 19.837406,57.537012 23.589824,48.910243 27.341096,40.283043 31.091672,31.654378 40.563651,27.217742 50.034138,22.780429 59.504275,18.341899 50.596152,12.643419 41.687642,6.9443346 32.777676,1.2439601 30.926183,10.305356 29.073879,19.36526 27.220543,28.424762 15.133084,31.796113 3.0454274,35.166316 -9.0438754,38.535773 -0.09332906,48.901077 8.8557592,59.264811 17.804462,69.62822 22.829018,57.563193 27.852351,45.497939 32.875065,33.431017 44.755387,26.793186 56.634075,20.154805 68.512556,13.51508 58.805035,6.8338555 49.097175,0.15208491 39.387812,-6.5310332 33.500771,3.1507353 27.613045,12.83117 21.724279,22.51085"
       sodipodi:nodetypes="cccccccccccccccccccc" />
    <path
       inkscape:original-d="m 21.01624,21.044272 c -0.485931,-0.581724 -0.971374,-1.164226 -1.456327,-1.747505 -0.864958,0.449504 -1.72939,0.89821 -2.593349,1.34615 -0.917512,1.214269 -1.834493,2.42771 -2.751005,3.640399 -0.189622,2.978429 -0.378745,5.955962 -0.567382,8.932777 2.020522,2.420701 4.041452,4.840528 6.062914,7.259629 2.426119,0.705507 4.852631,1.410207 7.279679,2.114146 2.094287,-0.0256 4.18898,-0.05195 6.284206,-0.07911 0.609357,-0.936048 1.219179,-1.872836 1.829506,-2.810419 -1.833449,-0.03678 -3.666333,-0.07434 -5.498764,-0.112672 -2.501867,-0.835285 -5.003143,-1.671314 -7.503981,-2.508137 -1.368417,-2.038198 -2.736289,-4.077092 -4.103697,-6.116805 0.02396,-1.936782 0.04843,-3.874263 0.07337,-5.812563 0.981142,-1.367881 1.962735,-2.736486 2.944836,-4.105895 z"
       inkscape:path-effect="#path-effect1024"
       id="path1732-5-6-7-5-6"
       d="m 20.77361,20.75313 c -0.24263,-0.291141 -0.728073,-0.873643 -1.403471,-0.940457 -0.675398,-0.06681 -1.539829,0.381893 -2.430489,1.21318 -0.890659,0.831287 -1.807641,2.044727 -2.360457,4.140323 -0.552816,2.095597 -0.74194,5.07313 0.174118,7.771594 0.916058,2.698464 2.936989,5.118291 5.160567,6.680451 2.223578,1.56216 4.65009,2.266861 6.91063,2.606072 2.260539,0.339211 4.355232,0.312841 5.707523,-0.168374 1.352291,-0.481216 1.962114,-1.418003 1.350566,-1.905576 -0.611548,-0.487572 -2.444432,-0.525128 -4.611447,-0.961968 -2.167016,-0.43684 -4.668292,-1.272868 -6.602712,-2.71019 -1.93442,-1.437321 -3.302291,-3.476216 -3.974121,-5.464226 -0.67183,-1.98801 -0.647374,-3.925491 -0.144592,-5.578601 0.502782,-1.653109 1.484375,-3.021714 1.975448,-3.706403 0.491073,-0.684688 0.491067,-0.684683 0.248437,-0.975825 z"
       style="fill:#decd87;stroke:#e0c06e;stroke-width:0.661599px;stroke-linecap:butt;stroke-linejoin:miter;stroke-opacity:1" />
    <path
       style="fill:#decd87;stroke:#e0c06e;stroke-width:0.661599px;stroke-linecap:butt;stroke-linejoin:miter;stroke-opacity:1"
       d="m 24.03419,17.440796 c -0.24263,-0.291141 -0.728073,-0.873644 -1.403471,-0.940458 -0.675398,-0.06681 -1.539831,0.381894 -2.43049,1.21318 -0.89066,0.831287 -1.807642,2.044729 -2.360458,4.140325 -0.552816,2.095596 -0.74194,5.073131 0.174119,7.771594 0.916058,2.698462 2.936989,5.11829 5.160567,6.680449 2.223578,1.562159 4.650089,2.266861 6.910629,2.606072 2.260539,0.339211 4.355232,0.312841 5.707523,-0.168374 1.352291,-0.481216 1.962115,-1.418004 1.350567,-1.905575 -0.611548,-0.487572 -2.444433,-0.525129 -4.611448,-0.961969 -2.167015,-0.436839 -4.668292,-1.272868 -6.602712,-2.71019 -1.93442,-1.437321 -3.302292,-3.476215 -3.974121,-5.464225 -0.67183,-1.988009 -0.647374,-3.925491 -0.144592,-5.5786 0.502781,-1.65311 1.484373,-3.021714 1.975446,-3.706403 0.491073,-0.684689 0.49107,-0.684685 0.248441,-0.975826 z"
       id="path1732-5-6-7-5-3-2"
       inkscape:path-effect="#path-effect1022"
       inkscape:original-d="m 24.276819,17.731937 c -0.485932,-0.581721 -0.971374,-1.164225 -1.456326,-1.747505 -0.864958,0.449505 -1.729391,0.898212 -2.593351,1.346151 -0.917511,1.214269 -1.834492,2.427712 -2.751005,3.6404 -0.189622,2.978428 -0.378744,5.955963 -0.567382,8.932775 2.020523,2.420701 4.041453,4.84053 6.062914,7.259628 2.42612,0.705507 4.852631,1.410208 7.279679,2.114147 2.094287,-0.0256 4.18898,-0.05195 6.284206,-0.07911 0.609358,-0.936047 1.21918,-1.872836 1.829506,-2.810418 -1.833448,-0.03678 -3.666333,-0.07434 -5.498763,-0.112673 -2.501867,-0.835285 -5.003144,-1.671314 -7.503982,-2.508137 -1.368417,-2.038198 -2.736289,-4.077092 -4.103697,-6.116803 0.02396,-1.936782 0.04843,-3.874264 0.07337,-5.812564 0.981141,-1.36788 1.962733,-2.736485 2.944834,-4.105895 z" />
    <path
       style="fill:#decd87;stroke:#e0c06e;stroke-width:0.661599px;stroke-linecap:butt;stroke-linejoin:miter;stroke-opacity:1"
       d="m 26.818068,14.376406 c -0.242629,-0.291141 -0.728073,-0.873644 -1.40347,-0.940459 -0.675398,-0.06681 -1.539832,0.381894 -2.43049,1.21318 -0.890659,0.831287 -1.807642,2.044729 -2.360458,4.140325 -0.552816,2.095597 -0.741939,5.073131 0.174119,7.771595 0.916058,2.698464 2.936988,5.11829 5.160566,6.68045 2.223579,1.56216 4.650091,2.266861 6.910631,2.606072 2.260539,0.339211 4.355231,0.312841 5.707523,-0.168374 1.352291,-0.481215 1.962114,-1.418003 1.350566,-1.905575 -0.611548,-0.487572 -2.444433,-0.525129 -4.611448,-0.961969 -2.167015,-0.436839 -4.668291,-1.272867 -6.602711,-2.710188 -1.93442,-1.437321 -3.302291,-3.476215 -3.974123,-5.464226 -0.671831,-1.988011 -0.647378,-3.925493 -0.144598,-5.578603 0.50278,-1.653109 1.484372,-3.021713 1.975445,-3.706401 0.491073,-0.684689 0.491078,-0.684686 0.248448,-0.975827 z"
       id="path1732-5-6-7-5-5-9"
       inkscape:path-effect="#path-effect1020"
       inkscape:original-d="m 27.060698,14.667547 c -0.485931,-0.581722 -0.971374,-1.164226 -1.456327,-1.747505 -0.864956,0.449504 -1.72939,0.898212 -2.593349,1.346149 -0.917511,1.21427 -1.834492,2.427713 -2.751006,3.640401 -0.189621,2.978429 -0.378744,5.955963 -0.567381,8.932778 2.020523,2.4207 4.041452,4.840527 6.062913,7.259628 2.42612,0.705506 4.852632,1.410207 7.27968,2.114146 2.094287,-0.0256 4.188979,-0.05195 6.284206,-0.07911 0.609356,-0.936048 1.21918,-1.872835 1.829506,-2.810418 -1.833449,-0.03678 -3.666334,-0.07434 -5.498763,-0.112673 -2.501868,-0.835285 -5.003144,-1.671313 -7.503983,-2.508136 -1.368416,-2.038197 -2.736287,-4.077091 -4.103696,-6.116804 0.02396,-1.936783 0.04843,-3.874265 0.07336,-5.812564 0.981143,-1.367881 1.962734,-2.736485 2.944835,-4.105895 z" />
  </g>
</svg>
