<?xml version="1.0" encoding="UTF-8" standalone="no"?>
<svg
   xmlns:osb="http://www.openswatchbook.org/uri/2009/osb"
   xmlns:dc="http://purl.org/dc/elements/1.1/"
   xmlns:cc="http://creativecommons.org/ns#"
   xmlns:rdf="http://www.w3.org/1999/02/22-rdf-syntax-ns#"
   xmlns:svg="http://www.w3.org/2000/svg"
   xmlns="http://www.w3.org/2000/svg"
   xmlns:sodipodi="http://sodipodi.sourceforge.net/DTD/sodipodi-0.dtd"
   xmlns:inkscape="http://www.inkscape.org/namespaces/inkscape"
   sodipodi:docname="wood.svg"
   inkscape:version="1.0 (4035a4fb49, 2020-05-01)"
   id="svg8"
   version="1.1"
   viewBox="0 0 96 96"
   height="128"
   width="128"
   inkscape:export-filename="/home/bert/dev/notpokemongo/assets/wood.png"
   inkscape:export-xdpi="96"
   inkscape:export-ydpi="96">
  <defs
     id="defs2">
    <linearGradient
       osb:paint="solid"
       id="linearGradient1428">
      <stop
         id="stop1426"
         offset="0"
         style="stop-color:#e0e0e0;stop-opacity:1;" />
    </linearGradient>
  </defs>
  <sodipodi:namedview
     inkscape:window-maximized="1"
     inkscape:window-y="34"
     inkscape:window-x="53"
     inkscape:window-height="1018"
     inkscape:window-width="1867"
     units="px"
     showgrid="false"
     inkscape:document-rotation="0"
     inkscape:current-layer="layer1"
     inkscape:document-units="pt"
     inkscape:cy="66.465858"
     inkscape:cx="61.84807"
     inkscape:zoom="6.2734375"
     inkscape:pageshadow="2"
     inkscape:pageopacity="0.0"
     borderopacity="1.0"
     bordercolor="#666666"
     pagecolor="#ffffff"
     id="base"
     width="64px"
     scale-x="1" />
  <metadata
     id="metadata5">
    <rdf:RDF>
      <cc:Work
         rdf:about="">
        <dc:format>image/svg+xml</dc:format>
        <dc:type
           rdf:resource="http://purl.org/dc/dcmitype/StillImage" />
        <dc:title />
      </cc:Work>
    </rdf:RDF>
  </metadata>
  <g
     id="layer1"
     inkscape:groupmode="layer"
     inkscape:label="Layer 1">
    <circle
       transform="rotate(-18.317283)"
       r="12.028911"
       style="fill:#c87137;stroke-width:0;stroke-linejoin:bevel;paint-order:stroke markers fill"
       id="path839-3"
       cx="36.074791"
       cy="40.533806" />
    <path
       sodipodi:nodetypes="ccccc"
       id="path858"
       d="M 8.4517908,65.114536 37.471174,19.941026 57.887978,32.673322 26.72616,80.578349 Z"
       style="fill:#c87137;stroke:none;stroke-width:0.688173px;stroke-linecap:butt;stroke-linejoin:miter;stroke-opacity:1" />
    <circle
       transform="rotate(-18.317283)"
       r="12.028912"
       cy="74.005714"
       cx="-5.264369"
       id="path839"
       style="fill:#d38d5f;stroke-width:0;stroke-linejoin:bevel;paint-order:stroke markers fill" />
    <circle
       transform="rotate(-18.317283)"
       r="12.02891"
       cy="56.031132"
       cx="54.65683"
       id="path839-3-6"
       style="fill:#c87137;stroke-width:0;stroke-linejoin:bevel;paint-order:stroke markers fill" />
    <path
       style="fill:#c87137;stroke:none;stroke-width:0.688173px;stroke-linecap:butt;stroke-linejoin:miter;stroke-opacity:1"
       d="M 30.962766,73.986677 59.982149,28.81317 80.398952,41.545464 49.237135,89.450492 Z"
       id="path858-7"
       sodipodi:nodetypes="ccccc" />
    <circle
       transform="rotate(-18.317283)"
       r="12.028911"
       style="fill:#d38d5f;stroke-width:0;stroke-linejoin:bevel;paint-order:stroke markers fill"
       id="path839-5"
       cx="13.184579"
       cy="89.503029" />
    <circle
       transform="rotate(-18.317283)"
       r="12.02891"
       cy="34.471004"
       cx="57.897652"
       id="path839-3-3"
       style="fill:#c87d4a;fill-opacity:1;stroke-width:0;stroke-linejoin:bevel;paint-order:stroke markers fill" />
    <path
       style="fill:#c88153;fill-opacity:1;stroke:none;stroke-width:0.688173px;stroke-linecap:butt;stroke-linejoin:miter;stroke-opacity:1"
       d="M 27.127097,52.578828 56.14648,7.40532 76.563284,20.137615 45.401468,68.042644 Z"
       id="path858-5"
       sodipodi:nodetypes="ccccc" />
    <circle
       transform="rotate(-18.317283)"
       r="12.028911"
       style="fill:#d2936e;stroke-width:0;stroke-linejoin:bevel;paint-order:stroke markers fill;fill-opacity:1"
       id="path839-6"
       cx="16.292311"
       cy="67.942924" />
    <path
       d="m 72.589919,44.3853 c -0.738866,0.238678 -1.498664,0.404835 -2.251786,0.591229 -1.706203,0.439986 -3.186309,1.41789 -4.694169,2.290446 -1.011155,0.633761 -1.956353,1.3888 -2.724407,2.307645 -0.132923,0.159021 -0.251551,0.329465 -0.377327,0.494197 -0.302101,0.441746 -0.525558,0.927369 -0.662615,1.444594 -0.115302,0.43512 -0.161667,0.892018 -0.229518,1.336006 -0.174163,0.892859 -0.252851,1.795275 -0.289663,2.7027 -0.0626,0.818844 -0.0327,1.636009 0.03971,2.452578 0.09804,0.670863 0.03008,1.341375 -0.05271,2.008662 -0.09703,0.86145 -0.456824,1.535599 -0.941872,2.236528 -0.387986,0.513875 -0.872967,0.94062 -1.311701,1.408709 -0.37623,0.401402 -0.330469,0.361395 -0.670374,0.788057 -0.358944,0.484126 -0.660834,1.017721 -1.112368,1.425846 -0.261183,0.236073 -0.450289,0.349065 -0.742883,0.547785 -0.144843,0.08845 -0.582621,0.348265 -0.434531,0.26536 0.333449,-0.186674 0.668501,-0.371421 0.990787,-0.576768 0.156642,-0.09981 -0.326404,0.17756 -0.49303,0.259619 -0.563481,0.2775 -1.144979,0.494893 -1.736143,0.704185 -0.441879,0.152289 -0.894973,0.265199 -1.349425,0.371742 0,0 -1.362323,1.039304 -1.362323,1.039304 v 0 c 0.470119,-0.113644 0.939068,-0.232703 1.397888,-0.387199 0.489871,-0.169334 0.706998,-0.236608 1.189138,-0.435053 1.190193,-0.489875 2.286068,-1.180836 3.373927,-1.861964 0.313327,-0.225249 0.466259,-0.316574 0.740131,-0.584404 0.431914,-0.422387 0.722753,-0.958454 1.092179,-1.431089 0.337082,-0.410144 0.302701,-0.383321 0.672544,-0.77202 0.448734,-0.471613 0.940222,-0.907583 1.315875,-1.443813 0.477995,-0.731964 0.827643,-1.440189 0.932044,-2.320444 0.08477,-0.676076 0.116518,-1.354056 0.01843,-2.031969 -0.06968,-0.810827 -0.08428,-1.620922 -0.03016,-2.433725 0.02937,-0.900667 0.117603,-1.795155 0.290528,-2.680666 0.158054,-0.99458 0.278871,-1.847837 0.897975,-2.689941 0.125103,-0.159446 0.243708,-0.324211 0.375308,-0.478337 0.772018,-0.904165 1.719203,-1.640292 2.730928,-2.256797 -0.264311,0.150591 -0.537882,0.28598 -0.792932,0.451773 -0.188799,0.122728 0.393734,-0.218773 0.59372,-0.322276 0.490062,-0.253635 0.99326,-0.476028 1.516917,-0.650818 0.164765,-0.055 0.332166,-0.101748 0.49825,-0.152622 0.729703,-0.182452 1.466138,-0.336732 2.192384,-0.532748 0,0 1.401281,-1.084312 1.40128,-1.084312 z"
       id="path891"
       style="fill:#c87d4a;fill-opacity:1;stroke:none;stroke-width:0;stroke-linejoin:bevel;paint-order:stroke markers fill" />
    <path
       d="m 16.660806,56.931806 c -0.01821,-0.832578 0.203939,-1.647343 0.53791,-2.404805 0.111119,-0.252025 0.241836,-0.494947 0.362754,-0.742421 0.821243,-1.459278 1.628189,-2.964792 2.776945,-4.200801 0.284557,-0.30617 0.598839,-0.583303 0.898259,-0.874955 1.313967,-1.145717 2.78557,-2.108473 4.319893,-2.933229 0.139145,-0.0748 -0.544821,0.316731 -0.399273,0.255316 0.273096,-0.115235 0.523241,-0.278679 0.784861,-0.418018 0.713257,-0.407596 1.480184,-0.717846 2.192539,-1.12678 0.559333,-0.32109 1.115902,-0.646973 1.673852,-0.970459 0.216687,-0.165343 0.480036,-0.28539 0.650589,-0.502397 0.499226,-0.879185 0.721303,-1.886867 0.989666,-2.852091 0.322287,-1.27398 0.651435,-2.546086 0.990783,-3.815627 0.215388,-0.805793 0.480591,-1.734394 0.649899,-2.554375 0.0805,-0.389868 0.134799,-0.784689 0.202197,-1.177034 0.187496,-1.257719 0.113218,-2.537242 0.306054,-3.793982 0.09229,-0.601498 0.143267,-0.711955 0.307012,-1.271818 0.223907,-0.591993 0.107846,-0.317004 0.341527,-0.827746 0,0 -1.556363,0.716088 -1.556363,0.716088 v 0 c -0.199185,0.512801 -0.09996,0.236915 -0.291732,0.829772 -0.140392,0.563466 -0.185706,0.677596 -0.259771,1.278882 -0.153361,1.24506 -0.06168,2.505952 -0.239127,3.749353 -0.06331,0.386658 -0.113585,0.775675 -0.189923,1.159972 -0.152122,0.765811 -0.428243,1.790744 -0.628424,2.538767 -0.03582,0.133863 -0.681007,2.500833 -0.725894,2.66232 -0.109702,0.394672 -0.223331,0.788243 -0.334997,1.182364 -0.30361,0.96784 -0.562904,2.038997 -1.196907,2.85587 -0.203386,0.166649 -0.426218,0.309187 -0.646536,0.452048 0.436355,-0.249848 0.8729,-0.499363 1.309063,-0.749545 0.08381,-0.04808 -0.167248,0.09684 -0.252008,0.143221 -0.44698,0.244595 -0.904529,0.470009 -1.356093,0.705872 -0.228138,0.119163 -0.455438,0.239918 -0.683157,0.359877 -1.435204,0.772693 -0.942679,0.49969 -3.076637,1.722805 -1.511837,0.866536 -3.003705,1.78781 -4.297622,2.965498 -0.305273,0.29991 -0.625544,0.585279 -0.915819,0.899727 -1.161066,1.257754 -1.978762,2.783799 -2.819199,4.260426 -0.125201,0.254426 -0.260408,0.504168 -0.375602,0.763279 -0.353968,0.796194 -0.574245,1.646939 -0.624449,2.5175 0,0 1.57573,-0.802874 1.57573,-0.802874 z"
       id="path893"
       style="fill:#c87d4a;fill-opacity:1;stroke:none;stroke-width:0;stroke-linejoin:bevel;paint-order:stroke markers fill" />
    <path
       d="m 47.991736,51.086021 c 0.591934,-0.441101 1.01833,-1.051155 1.455352,-1.636108 0.968942,-1.329003 1.49766,-2.892921 1.982229,-4.44638 0.4887,-1.518847 0.797403,-3.081697 1.097193,-4.645553 0.200075,-1.000709 0.485793,-1.986117 0.997283,-2.876025 0.339805,-0.591205 0.548183,-0.827493 0.961009,-1.368273 0.783562,-0.898186 1.597992,-1.805273 2.577112,-2.498443 0.174742,-0.123709 0.359753,-0.232233 0.53963,-0.348348 -0.241872,0.146341 -1.00618,0.40435 -0.725617,0.439025 0.314172,0.03883 0.564644,-0.286506 0.849952,-0.423659 1.157359,-0.556362 2.33987,-1.061255 3.519315,-1.568413 1.116096,-0.489701 2.266384,-0.891507 3.421598,-1.276838 0.109272,-0.03574 0.218545,-0.07148 0.327819,-0.107219 0,0 1.358435,-1.055906 1.358435,-1.055906 v 0 c -0.114392,0.03944 -0.228782,0.07887 -0.343173,0.118306 -1.177958,0.408972 -2.359598,0.810542 -3.499029,1.320675 -2.197376,0.956735 -4.423067,1.871604 -6.455526,3.15812 -0.180999,0.121837 -0.367336,0.236097 -0.542997,0.36551 -0.957457,0.705382 -1.748113,1.619822 -2.515598,2.518127 -0.405766,0.546364 -0.623237,0.802785 -0.957417,1.399185 -0.508044,0.906686 -0.784109,1.906528 -0.985489,2.919709 -0.298591,1.553995 -0.599903,3.109463 -1.085028,4.618991 -0.493192,1.556076 -1.041133,3.114935 -2.058246,4.417776 -0.465671,0.594165 -0.933069,1.199843 -1.563658,1.630088 0,0 1.644851,-0.654347 1.644851,-0.654347 z"
       id="path899"
       style="fill:#c86b2b;fill-opacity:1;stroke:none;stroke-width:0;stroke-linejoin:bevel;paint-order:stroke markers fill" />
    <path
       d="m 71.84792,10.973442 c -0.438907,-0.0453 -0.877274,-0.08404 -1.318577,-0.0916 -0.854665,0.01264 -1.704533,0.134654 -2.522799,0.380325 -0.822064,0.368369 -1.736706,0.719934 -2.313612,1.430409 -0.256165,0.315475 -0.378765,0.693053 -0.513895,1.069064 -0.381918,1.113812 -0.805692,2.210325 -1.136197,3.341116 -0.196524,0.882953 -0.461736,1.748438 -0.673699,2.627318 -0.101614,0.442197 -0.203804,0.91021 -0.525366,1.252334 -0.209108,0.22248 -0.36905,0.299922 -0.627524,0.464359 0.358143,-0.212863 0.728977,-0.405693 1.074431,-0.638587 0.12587,-0.08486 -0.273482,0.132042 -0.412731,0.192489 -0.581895,0.252601 -1.187994,0.447015 -1.78969,0.64567 -0.961966,0.264934 -1.659859,0.765554 -2.562611,1.283845 0,0 1.632178,-0.62842 1.632178,-0.62842 v 0 c -2.537694,1.444943 -1.137666,0.576929 -0.412356,0.387298 1.437057,-0.476381 2.80849,-0.95199 4.059757,-1.865675 0.275536,-0.199413 0.407048,-0.26437 0.617684,-0.529449 0.296794,-0.373506 0.386084,-0.855467 0.493101,-1.306592 0.20813,-0.868126 0.445479,-1.729106 0.637284,-2.60127 0.326559,-1.135947 0.762387,-2.232225 1.169783,-3.340887 0.150649,-0.365336 0.28886,-0.716679 0.565267,-1.008801 0.07479,-0.07904 0.343143,-0.262122 0.244403,-0.216399 -0.304778,0.141129 -1.85804,1.016543 -0.879368,0.491907 0.793457,-0.278355 1.626849,-0.408265 2.468298,-0.410031 0.428372,0.0034 0.856339,0.03249 1.280222,0.09662 0,0 1.446017,-1.025035 1.446017,-1.025035 z"
       id="path901"
       style="fill:#c86b2b;fill-opacity:1;stroke:none;stroke-width:0;stroke-linejoin:bevel;paint-order:stroke markers fill" />
    <path
       d="m 53.720254,19.268057 c -0.349866,0.678956 -0.757721,1.327935 -1.140732,1.989022 -0.68078,1.148055 -1.369078,2.290237 -1.98388,3.475414 -0.503355,0.990555 -0.77303,2.071451 -1.074493,3.134315 -0.205771,0.739195 -0.392113,1.480975 -0.735391,2.169781 -0.297637,0.532106 -0.674088,1.01205 -1.143054,1.404048 -0.360171,0.301057 -0.587844,0.43425 -0.98237,0.694016 -1.420738,0.82331 0.160788,-0.08884 0.3152,-0.203212 0.145569,-0.107817 -0.323336,0.163536 -0.487176,0.240808 -0.346296,0.163322 -0.583766,0.264331 -0.958059,0.315624 -0.441002,-0.01163 -0.833505,-0.299594 -1.283845,-0.230465 -0.104645,0.01607 -0.203024,0.06013 -0.304535,0.09019 -0.589797,0.347901 -1.198719,0.665243 -1.769388,1.043702 -0.146479,0.09714 -0.516619,0.63483 -0.590826,0.746646 -0.364604,0.549385 -0.68028,1.131018 -1.000108,1.706817 -0.692876,1.285767 -1.370278,2.58214 -1.902497,3.943617 -0.238136,0.636321 -0.384198,1.297465 -0.473966,1.969049 0,0 1.558064,-0.770431 1.558064,-0.770431 v 0 c 0.06954,-0.648347 0.205289,-1.286302 0.428871,-1.900462 0.518691,-1.356491 1.185702,-2.647328 1.894455,-3.913682 0.329561,-0.576426 0.651154,-1.163049 1.042629,-1.701071 0.104295,-0.143339 0.212692,-0.284338 0.332067,-0.415387 0.09661,-0.106062 0.447124,-0.348203 0.314237,-0.294122 -0.420533,0.171142 -0.79698,0.435169 -1.19547,0.652753 0.08911,-0.04265 0.172844,-0.09909 0.267323,-0.127948 0.444436,-0.135757 0.859446,0.170687 1.286138,0.23382 0.09624,-0.0037 0.194018,0.0064 0.288708,-0.01119 0.379842,-0.07052 0.925538,-0.353524 1.25595,-0.534886 1.497848,-0.822169 1.516933,-0.839977 2.532602,-1.447213 0.404149,-0.27554 0.624268,-0.407195 0.990637,-0.72825 0.473533,-0.414965 0.849014,-0.921011 1.148236,-1.472626 0.335089,-0.71064 0.495593,-1.43176 0.70026,-2.187058 0.289157,-1.050192 0.559907,-2.113605 1.05872,-3.089207 0.61315,-1.189851 1.311668,-2.33028 2.005102,-3.474594 0.409231,-0.679733 0.84729,-1.345031 1.211316,-2.050258 0,0 -1.604725,0.742442 -1.604725,0.742442 z"
       id="path903"
       style="fill:#c86b2b;fill-opacity:1;stroke:none;stroke-width:0;stroke-linejoin:bevel;paint-order:stroke markers fill" />
    <path
       d="m 43.749389,46.596633 c 0.04736,-0.757132 0.17538,-1.507026 0.312092,-2.252318 0.247076,-1.254378 0.642998,-2.472579 1.075532,-3.673484 0.336826,-0.993736 0.862747,-1.718478 1.58341,-2.457835 0.194409,-0.18865 0.385573,-0.385172 0.611652,-0.537076 0.05173,-0.03475 0.215158,-0.125904 0.161421,-0.09434 -1.399265,0.821931 -1.872573,0.987556 -1.281891,0.773036 0.165656,-0.0249 0.158886,0.227578 0.134409,0.336773 -0.202894,0.217795 -0.441371,0.39722 -0.635357,0.624123 0,0 1.631532,-0.686181 1.631532,-0.686181 v 0 c 0.213717,-0.225958 0.509232,-0.415721 0.589698,-0.729884 -0.0041,-0.241717 -0.06056,-0.503064 -0.304274,-0.607877 -0.770914,0.0068 -1.879216,0.950905 -2.490898,1.582768 -0.699182,0.765247 -1.178204,1.500571 -1.503509,2.499358 -0.422819,1.21606 -0.827944,2.443922 -1.086259,3.707034 -0.148881,0.766674 -0.283368,1.537233 -0.378708,2.312525 0,0 1.58115,-0.796623 1.58115,-0.796623 z"
       id="path905"
       style="fill:#c86b2b;fill-opacity:1;stroke:none;stroke-width:0;stroke-linejoin:bevel;paint-order:stroke markers fill" />
    <path
       d="m 48.445827,37.921904 c -0.438691,-0.315111 -0.546886,-0.90415 -0.659404,-1.398701 -0.06574,-0.481391 -0.193363,-1.049156 0.05527,-1.503749 0.03438,-0.06286 0.08346,-0.116483 0.125184,-0.174725 0.448429,-0.412188 1.456218,-0.956268 -1.006811,0.530164 -0.04851,0.02928 0.100974,-0.05179 0.153537,-0.07295 0.124412,-0.05008 0.147312,-0.0472 0.274,-0.06822 0.243426,-0.0027 0.451645,0.02027 0.52237,0.279944 0.0304,0.357044 0.197845,0.678657 0.276874,1.023269 -2.49e-4,0.294176 -0.03032,0.581183 -0.0045,0.87611 -0.02258,0.270363 -0.171273,0.513308 -0.28494,0.755289 -0.08986,0.247379 -0.272558,0.421505 -0.471823,0.583894 -0.618586,0.275247 0.189025,-0.07989 1.327303,-0.788634 0.03778,-0.02352 -0.08671,0.02083 -0.130843,0.02655 -0.177596,0.02301 -0.360002,0.02456 -0.538534,0.03945 -0.04915,0.0058 -0.0983,0.01159 -0.147452,0.01738 0,0 -1.410224,1.057547 -1.410224,1.057547 v 0 c 0.04889,-0.0092 0.09778,-0.01831 0.146674,-0.02746 0.177104,-0.02179 0.351902,-0.03743 0.53057,-0.03763 0.0485,-5.4e-5 0.102059,0.02488 0.145473,0.0032 1.443774,-0.719272 1.172697,-0.498545 1.713597,-0.957974 0.190968,-0.188165 0.348891,-0.393291 0.440357,-0.64874 0.120835,-0.267464 0.267034,-0.53583 0.247618,-0.838586 -0.02484,-0.300875 0.029,-0.598801 -0.0158,-0.897791 -0.09455,-0.344927 -0.24636,-0.673942 -0.276565,-1.035341 -0.120701,-0.348219 -0.297375,-0.430368 -0.651095,-0.478861 -0.15985,7.51e-4 -0.337043,0.0067 -0.481591,0.08767 -0.727406,0.40747 -1.464552,0.643853 -1.955923,1.279123 -0.03539,0.06925 -0.07823,0.135171 -0.106173,0.207747 -0.192947,0.501114 -0.06179,1.066879 0.01216,1.576132 0.123008,0.547562 0.245043,1.152176 0.677855,1.546713 0,0 1.492843,-0.960868 1.492843,-0.960868 z"
       id="path907"
       style="fill:#c86b2b;fill-opacity:1;stroke:none;stroke-width:0;stroke-linejoin:bevel;paint-order:stroke markers fill" />
    <path
       d="m 50.596585,34.470655 c 0.316625,-0.260723 0.674026,-0.465843 1.015984,-0.69083 0.447922,-0.303519 0.903999,-0.595262 1.340184,-0.915604 0.474259,-0.361974 0.826481,-0.837654 1.133253,-1.342653 0.294471,-0.578706 0.614997,-1.134183 1.025108,-1.638343 0.452186,-0.507071 0.970568,-0.950364 1.526273,-1.339343 0.929985,-0.52875 -0.45069,0.253133 -0.819369,0.500125 -0.103559,0.06938 0.227286,-0.102595 0.342874,-0.149257 0.340847,-0.137596 0.687733,-0.235647 1.043235,-0.326138 0.95176,-0.194155 1.916233,-0.320287 2.875999,-0.468361 1.22905,-0.196596 2.45097,-0.434372 3.676309,-0.652399 0.733653,-0.150155 1.495038,-0.20447 2.205665,-0.452084 0.555018,-0.325958 1.122009,-0.632338 1.665057,-0.977873 0.04278,-0.02722 0.280513,-0.372771 0.292059,-0.387617 0.07509,-0.09655 0.149871,-0.193883 0.234124,-0.282557 0.289043,-0.304208 0.490849,-0.450081 0.822666,-0.721641 0,0 -1.547392,0.623963 -1.547392,0.623963 v 0 c -0.384927,0.321989 -0.520458,0.414625 -0.854382,0.76813 -0.08919,0.09442 -0.167805,0.198294 -0.251707,0.297441 -0.05835,0.06976 -0.112668,0.143091 -0.175046,0.209269 -0.364243,0.386436 -1.457326,0.865397 1.188011,-0.611067 -0.700152,0.331586 -1.506743,0.356772 -2.251531,0.532938 -1.21942,0.22194 -2.438402,0.447101 -3.661778,0.64641 -0.950086,0.149217 -1.905578,0.263044 -2.852238,0.432611 -1.338022,0.30841 -2.345609,0.845768 -3.532803,1.651072 -0.55104,0.409587 -1.077554,0.859471 -1.518534,1.388305 -0.393531,0.517366 -0.696149,1.085573 -1.012164,1.652089 -0.321365,0.488503 -0.686946,0.945123 -1.169059,1.285864 -0.441179,0.312181 -0.893488,0.608233 -1.343128,0.90802 -0.355696,0.229866 -0.722197,0.4474 -1.042128,0.727141 0,0 1.644458,-0.667611 1.644458,-0.667611 z"
       id="path909"
       style="fill:#c86b2b;fill-opacity:1;stroke:none;stroke-width:0;stroke-linejoin:bevel;paint-order:stroke markers fill" />
    <path
       d="m 56.583335,14.571339 c 0.339839,-1.065385 0.770597,-2.097643 1.24727,-3.108094 0.752549,-1.5367565 1.898751,-2.8116027 3.112458,-3.9964435 0.150271,-0.1326848 0.294326,-0.2727612 0.450813,-0.3980545 0.124631,-0.099788 0.530256,-0.3548503 0.391312,-0.2762042 -0.38263,0.2165805 -0.774936,0.4230143 -1.12369,0.6907522 -0.08577,0.065845 0.209074,-0.058811 0.316506,-0.071079 0.179722,-0.020522 0.615322,0.00427 0.779772,0.010695 0.622994,0.014042 1.254978,-0.051739 1.841739,-0.2728456 0.117366,-0.044226 0.2289,-0.1026014 0.34335,-0.153902 0,0 1.341226,-1.0698745 1.341226,-1.0698745 v 0 C 65.171826,5.9845289 65.063048,6.0500527 64.947295,6.1010085 64.380389,6.3505648 63.759934,6.4437962 63.1439,6.426794 62.9214,6.412293 62.202368,6.3189501 62.005282,6.414581 c -1.027539,0.4985894 -1.818054,0.9180621 -2.584347,1.6823085 -1.192025,1.210797 -2.318374,2.5040345 -3.07384,4.0408545 -0.501074,1.038972 -0.944827,2.101056 -1.3568,3.178432 0,0 1.59304,-0.744837 1.59304,-0.744837 z"
       id="path913"
       style="fill:#c87237;fill-opacity:1;stroke:none;stroke-width:0;stroke-linejoin:bevel;paint-order:stroke markers fill" />
    <path
       d="m 35.944777,51.633025 c -0.964331,-0.01348 -1.90747,0.228852 -2.82098,0.512835 -0.872474,0.31156 -1.668021,0.78078 -2.417444,1.327362 -0.479911,0.350017 -0.891805,1.002489 -1.208481,1.493183 -0.745695,1.301439 -1.05454,2.773294 -1.248651,4.243892 -0.07446,1.035851 -0.04997,2.134393 0.482136,3.061473 0.08542,0.148826 0.19661,0.281297 0.294914,0.421945 0.792885,0.907437 1.798339,1.188903 2.934256,1.434558 1.581668,0.276688 3.183926,0.41793 4.788603,0.437545 1.101521,-0.0084 2.207215,-0.161096 3.238562,-0.561749 0.161923,-0.0629 0.317916,-0.140116 0.476874,-0.210174 0.963688,-0.552563 2.060678,-1.078969 2.663972,-2.064319 0.09219,-0.150567 0.158431,-0.315554 0.237646,-0.473332 0.337938,-0.907328 0.471579,-1.879206 0.355611,-2.84299 -0.02288,-0.190156 -0.06493,-0.377512 -0.0974,-0.566267 -0.208611,-0.920578 -0.562668,-1.810041 -1.076939,-2.603725 -0.09842,-0.151896 -0.20843,-0.295964 -0.312644,-0.443946 -0.655828,-0.79253 -1.454689,-1.455507 -2.245303,-2.109128 -0.81896,-0.610941 -1.814778,-0.859937 -2.794644,-1.079366 0,0 -0.746592,0.518732 -0.746592,0.518732 v 0 c 0.973736,0.199012 1.959672,0.440526 2.772885,1.041889 0.789698,0.64407 1.589104,1.295906 2.240777,2.083691 0.103699,0.145588 0.213415,0.287074 0.311098,0.436765 0.511083,0.783183 0.855812,1.664449 1.061805,2.574239 0.0311,0.186078 0.07162,0.370824 0.09328,0.558234 0.11005,0.952076 -0.02677,1.91257 -0.381345,2.801163 -0.227614,0.425341 -0.232093,0.495829 -0.551812,0.853488 -0.109842,0.122877 -0.231217,0.235277 -0.354285,0.344906 -0.126603,0.112778 -0.35574,0.156505 -0.394014,0.321678 -0.02956,0.127571 0.443174,-0.26216 0.357312,-0.163287 -0.109956,0.126618 -0.289997,0.168495 -0.434995,0.252742 -0.158579,0.07306 -0.313979,0.153474 -0.475739,0.219203 -1.028484,0.417914 -2.136609,0.583295 -3.241444,0.602037 -1.597131,-0.01015 -3.191832,-0.150311 -4.764912,-0.4323 -1.064948,-0.233976 -2.143186,-0.53132 -2.884562,-1.387745 -0.09648,-0.135661 -0.205509,-0.263219 -0.289438,-0.406981 -0.529431,-0.906866 -0.553833,-1.988938 -0.479422,-3.005549 0.197485,-1.463756 0.51113,-2.927006 1.274255,-4.212394 0.307111,-0.461067 0.390229,-0.628156 0.767382,-1.030447 0.143842,-0.153429 0.353966,-0.251396 0.457545,-0.434432 0.04412,-0.07796 -0.328659,0.13284 -0.256693,0.07951 0.299939,-0.222286 0.810356,-0.402355 1.148819,-0.538904 0.889643,-0.283545 1.808482,-0.521407 2.750034,-0.507187 0,0 0.769978,-0.546844 0.769978,-0.546844 z"
       id="path931"
       style="fill:#c87237;fill-opacity:1;stroke:none;stroke-width:0;stroke-linejoin:bevel;paint-order:stroke markers fill" />
    <path
       d="m 38.305348,56.843554 c -0.70678,-0.153557 -1.393467,0.01363 -2.063285,0.238246 -0.829568,0.395157 -1.989245,0.91055 -2.486408,1.764369 -0.06264,0.107576 -0.09717,0.229223 -0.145753,0.343834 -0.0093,0.121042 -0.03901,0.242229 -0.02798,0.363129 0.04612,0.505561 0.416744,0.943672 0.855808,1.166851 0.113461,0.05768 0.238326,0.08944 0.357489,0.134154 0.299459,0.0426 0.423209,0.08366 0.723047,0.03708 0.588859,-0.09148 1.260361,-0.485955 1.598459,-0.982342 0.07233,-0.106197 0.126727,-0.223559 0.190091,-0.335339 0.242742,-0.559093 0.535271,-1.158952 0.491911,-1.787411 -0.0071,-0.103394 -0.03562,-0.204196 -0.05344,-0.306293 -0.03104,-0.09041 -0.06208,-0.180821 -0.09312,-0.271232 0,0 -0.810573,0.447356 -0.810573,0.447356 v 0 c 0.02936,0.08558 0.05873,0.171155 0.08809,0.256732 0.01559,0.09628 0.04123,0.191467 0.04678,0.288844 0.03511,0.614713 -0.256763,1.20155 -0.505622,1.742879 -0.06691,0.107142 -0.124108,0.220993 -0.200717,0.321426 -0.04993,0.06546 -0.888222,0.865899 0.292426,-0.02593 0.08594,-0.06492 -0.199696,0.08411 -0.305041,0.106515 -0.282938,0.06017 -0.418491,0.0237 -0.703653,-0.0047 -0.115306,-0.03894 -0.235896,-0.06479 -0.345918,-0.116821 -0.41505,-0.196281 -0.775928,-0.604294 -0.80417,-1.080624 -0.0067,-0.112479 0.02627,-0.223817 0.03939,-0.335726 0.05044,-0.107532 0.08835,-0.221897 0.151334,-0.322596 0.13103,-0.209478 0.36768,-0.447934 0.553726,-0.603426 0.114282,-0.09551 0.434342,-0.135812 0.359894,-0.264812 -0.074,-0.128236 -0.482994,0.099 -0.389384,0.213712 0.09486,0.116241 0.271388,-0.128017 0.407082,-0.192026 0.646609,-0.22886 1.315095,-0.412891 2.002984,-0.259516 0,0 0.776539,-0.536331 0.776539,-0.536331 z"
       id="path933"
       style="fill:#c87237;fill-opacity:1;stroke:none;stroke-width:0;stroke-linejoin:bevel;paint-order:stroke markers fill" />
    <path
       d="m 17.341274,64.991906 c -0.616576,-0.05226 -1.211997,0.06983 -1.805781,0.221738 -1.097746,0.341888 -2.196696,0.880773 -3.070856,1.632562 -0.155511,0.133742 -0.295588,0.284447 -0.443381,0.426669 -0.685468,0.74799 -1.156003,1.64617 -1.439732,2.616893 -0.05672,0.194043 -0.09836,0.392178 -0.147536,0.588267 -0.2632,1.263234 -0.01112,2.071492 0.550436,3.188194 0.546357,1.022081 1.21228,1.483711 2.204028,2.026943 1.022196,0.531038 2.117819,0.890603 3.228857,1.181198 0.945676,0.258975 1.846883,0.14604 2.789798,-0.03952 0.486973,-0.118343 0.983225,-0.223133 1.448883,-0.41415 0.514777,-0.21117 1.232648,-0.673275 1.588053,-0.932813 0.138258,-0.100965 0.233479,-0.250447 0.350219,-0.375667 0.718882,-0.895618 1.070639,-1.979276 1.316325,-3.083177 0.181623,-1.074215 0.211673,-2.180862 0.06035,-3.261489 -0.02882,-0.205754 -0.07315,-0.409032 -0.109733,-0.613549 -0.178434,-0.737906 -0.431719,-1.474128 -1.00559,-2.003545 -0.355177,-0.327664 -0.597153,-0.426582 -1.016618,-0.65626 -0.876412,-0.392008 -1.813882,-0.619323 -2.765029,-0.727877 -0.597159,-0.03994 -1.197393,-0.06425 -1.795362,-0.03297 0,0 -0.743016,0.54732 -0.743016,0.54732 v 0 c 0.595616,-0.04715 1.194444,-0.01856 1.790266,0.01714 0.950291,0.09391 1.890378,0.296483 2.767852,0.683241 0.413569,0.221702 0.646236,0.312792 0.99556,0.632356 0.562926,0.514966 0.811368,1.23791 0.987564,1.957957 0.03644,0.202095 0.08067,0.402936 0.109297,0.606284 0.151229,1.074418 0.115006,2.173129 -0.07975,3.238902 -0.250616,1.09424 -0.610154,2.167493 -1.343236,3.041788 -0.119866,0.12066 -0.381466,0.193305 -0.359599,0.361973 0.01799,0.138787 0.471047,-0.278265 0.384733,-0.168098 -0.09678,0.123525 -0.275752,0.150825 -0.419862,0.212933 -0.461511,0.198907 -0.957444,0.305032 -1.442686,0.425655 -0.919987,0.18594 -1.842617,0.316222 -2.768735,0.07403 -1.109411,-0.277808 -2.200357,-0.634793 -3.219924,-1.16022 -0.973687,-0.531886 -1.627234,-0.986404 -2.169491,-1.984847 -0.562092,-1.098427 -0.793246,-1.882362 -0.530545,-3.125895 0.05036,-0.19408 0.09315,-0.390285 0.151093,-0.58224 0.289544,-0.959238 0.7651,-1.84567 1.455371,-2.576561 0.150539,-0.139666 0.293717,-0.28771 0.451616,-0.418997 0.146826,-0.122079 0.338691,-0.193351 0.46111,-0.339895 0.07427,-0.08891 -0.412386,0.211338 -0.309401,0.158286 0.441131,-0.227245 0.885023,-0.445982 1.369055,-0.569538 0.577431,-0.151459 1.159395,-0.28201 1.760448,-0.220892 0,0 0.764954,-0.552077 0.764954,-0.552077 z"
       id="path937"
       style="fill:#c8733d;fill-opacity:1;stroke:none;stroke-width:0;stroke-linejoin:bevel;paint-order:stroke markers fill" />
    <path
       d="m 18.317464,69.728853 c -0.827162,0.133582 -1.591538,0.537615 -2.217522,1.093538 -0.346958,0.394339 -0.565601,0.906927 -0.631289,1.429283 -0.01307,0.103977 -0.0079,0.209442 -0.01187,0.314163 0.02003,0.09249 0.02651,0.188989 0.06008,0.277466 0.125849,0.33168 0.465006,0.550196 0.803612,0.609305 0.09727,0.01698 0.197021,0.01336 0.295531,0.02004 0.775765,-0.07919 1.306569,-0.455391 1.94309,-0.94318 0.115798,-0.08874 0.333667,-0.491252 0.399219,-0.603623 0.238101,-0.47536 0.50522,-1.013829 0.352987,-1.559511 -0.02066,-0.07404 -0.05894,-0.141992 -0.08842,-0.212987 -0.102228,-0.188797 -0.243478,-0.347256 -0.40204,-0.489499 0,0 -0.800717,0.49895 -0.800717,0.49895 v 0 c 0.154026,0.126781 0.290206,0.27139 0.389411,0.446345 0.02693,0.06407 0.06231,0.125216 0.08076,0.192221 0.144307,0.523968 -0.139317,1.044328 -0.368985,1.49519 -0.06568,0.105207 -0.124695,0.214885 -0.19705,0.31562 -0.06656,0.09267 -0.332776,0.259105 -0.218754,0.263271 0.198721,0.0073 0.353816,-0.184253 0.540955,-0.251497 0.09898,-0.03557 -0.178323,0.113011 -0.274438,0.155729 -0.232371,0.103275 -0.358751,0.109752 -0.605509,0.152667 -0.0938,-0.0017 -0.188271,0.0063 -0.281389,-0.0051 -0.307401,-0.03758 -0.63695,-0.218063 -0.75162,-0.521743 -0.03064,-0.08115 -0.03508,-0.169903 -0.05262,-0.254854 0.03491,-0.649478 0.220375,-1.199935 0.676763,-1.675704 0.264119,-0.217054 0.5448,-0.424334 -0.327772,0.114678 -0.08243,0.05092 0.174612,-0.08445 0.264764,-0.119946 0.214255,-0.08436 0.437783,-0.137631 0.664434,-0.174957 0,0 0.758383,-0.565868 0.758383,-0.565868 z"
       id="path939"
       style="fill:#c8733d;fill-opacity:1;stroke:none;stroke-width:0;stroke-linejoin:bevel;paint-order:stroke markers fill" />
    <path
       d="m 43.198962,76.065337 c -0.279017,-0.400657 -0.623909,-0.428302 -1.083623,-0.446084 -0.902863,0.06645 -1.851676,0.140535 -2.689786,0.516225 -0.179699,0.08056 -0.345917,0.188317 -0.518876,0.282479 -0.421677,0.28917 -0.86383,0.550545 -1.265034,0.867518 -0.181787,0.143617 -0.325733,0.330187 -0.47511,0.507278 -0.490655,0.581669 -0.893126,1.236862 -1.182113,1.941232 -0.09389,0.22884 -0.161543,0.467588 -0.242315,0.701377 -0.154383,0.661388 -0.220742,1.351635 0.02186,2.004946 0.1509,0.406365 0.462295,0.854399 0.756943,1.166842 0.16928,0.179505 0.367713,0.329085 0.55157,0.493628 1.094077,0.776955 2.382697,1.228635 3.722561,1.314944 0.276938,0.01785 0.554979,0.0067 0.832468,0.01065 0.770367,-0.04658 1.548456,-0.128805 2.283795,-0.378614 0.664281,-0.225661 1.312919,-0.642135 1.87768,-1.016175 0.163373,-0.108203 0.299053,-0.253305 0.448579,-0.37995 0.6346,-0.672623 1.339177,-1.383608 1.63759,-2.283953 0.05004,-0.150975 0.07289,-0.309645 0.109341,-0.46446 0.0079,-0.16863 0.02534,-0.33708 0.02366,-0.505875 -0.007,-0.701018 -0.120316,-1.63791 -0.395934,-2.284642 -0.07294,-0.171165 -0.180106,-0.325621 -0.270159,-0.48843 -0.134441,-0.13998 -0.252516,-0.297773 -0.403321,-0.419955 -0.856228,-0.693698 -2.09538,-0.864728 -3.149508,-1.02462 -0.460955,-0.06615 -0.922207,-0.102735 -1.383461,-0.03278 0,0 -0.745044,0.562597 -0.745044,0.562597 v 0 c 0.463742,-0.102735 0.931595,-0.07695 1.401552,-0.0174 1.039478,0.142253 2.266089,0.299752 3.113484,0.977918 0.145476,0.116422 0.259585,0.267374 0.389377,0.401055 0.08761,0.157245 0.191876,0.306307 0.262814,0.471742 0.275499,0.642495 0.38091,1.562985 0.37452,2.25921 -0.0015,0.164603 -0.02255,0.32844 -0.03382,0.49266 -0.03755,0.14964 -0.06205,0.303173 -0.112661,0.448913 -0.307741,0.886117 -1.007397,1.586362 -1.645933,2.24199 -0.149906,0.1227 -0.329586,0.21612 -0.44972,0.368085 -0.05474,0.06922 0.32308,-0.142283 0.242595,-0.106073 -0.198018,0.0891 -0.390897,0.191183 -0.5952,0.264728 -0.731297,0.263272 -1.509192,0.353572 -2.279487,0.405907 -0.27509,-0.0015 -0.550622,0.01095 -0.825271,-0.0045 -1.324732,-0.07551 -2.603417,-0.506625 -3.686011,-1.274715 -0.180082,-0.16089 -0.374387,-0.307155 -0.540244,-0.482677 -0.292941,-0.310005 -0.585196,-0.730515 -0.73271,-1.135095 -0.233149,-0.639458 -0.163971,-1.311855 -0.0088,-1.956855 0.08087,-0.230205 0.148206,-0.46563 0.242625,-0.690623 0.201855,-0.481005 0.446884,-0.914655 0.746925,-1.340842 0.141196,-0.200558 0.293356,-0.393743 0.454234,-0.57888 0.151778,-0.174675 0.380378,-0.291473 0.482488,-0.499125 0.03674,-0.0747 -0.165757,0.01568 -0.248635,0.02355 0.169794,-0.09767 0.332308,-0.20925 0.509381,-0.292995 0.8197,-0.38766 1.756563,-0.46383 2.646836,-0.527423 0.421896,0.01013 0.765129,0.0075 1.014854,0.389783 0,0 0.815059,-0.482318 0.815059,-0.482318 z"
       id="path945"
       style="fill:#c8733d;fill-opacity:1;stroke:none;stroke-width:0;stroke-linejoin:bevel;paint-order:stroke markers fill" />
    <path
       d="m 42.99135,79.170398 c -0.411104,0.03337 -0.863612,0.06255 -1.233929,0.266077 -0.351008,0.192923 -0.690083,0.406792 -1.035125,0.610193 -0.246994,0.242834 -0.630758,0.650189 -0.416621,1.032307 0.03685,0.06578 0.09844,0.11415 0.14766,0.171225 0.474278,0.324338 1.070552,0.444053 1.638317,0.445028 0.87151,-0.189451 1.519638,-0.679388 1.638339,-1.547701 0.01438,-0.105142 0.0091,-0.212054 0.01358,-0.318082 -0.01509,-0.08943 -0.03018,-0.17886 -0.04526,-0.26829 0,0 -0.819551,0.434775 -0.819551,0.434775 v 0 c 0.01359,0.08267 0.02717,0.165345 0.04076,0.248018 -0.0203,0.32901 -0.06088,0.6234 -0.248084,0.906877 -0.05254,0.07956 -0.280461,0.235605 -0.187084,0.216353 0.214492,-0.04425 0.398731,-0.18378 0.585308,-0.29847 0.06856,-0.04215 -0.1521,0.05265 -0.22815,0.07894 -0.546632,0.02783 -1.12139,-0.08821 -1.588929,-0.380647 -0.04143,-0.04515 -0.09429,-0.08204 -0.124284,-0.135488 -0.191954,-0.342045 0.24104,-0.727492 0.455834,-0.920618 -0.184169,0.09947 -0.375196,0.187171 -0.552507,0.298403 -0.08146,0.05108 0.173258,-0.08429 0.263627,-0.11718 0.297057,-0.108105 0.615853,-0.15165 0.930002,-0.165105 0,0 0.766103,-0.556612 0.766103,-0.556612 z"
       id="path947"
       style="fill:#c8733d;fill-opacity:1;stroke:none;stroke-width:0;stroke-linejoin:bevel;paint-order:stroke markers fill" />
  </g>
</svg>
